<?xml version="1.0" encoding="UTF-8"?>
<!DOCTYPE svg PUBLIC "-//W3C//DTD SVG 1.1//EN" "http://www.w3.org/Graphics/SVG/1.1/DTD/svg11.dtd">
<!-- Creator: CorelDRAW 2021 (64 Bit) -->
<svg xmlns="http://www.w3.org/2000/svg" xml:space="preserve" width="127mm" height="49.5738mm" version="1.1" style="shape-rendering:geometricPrecision; text-rendering:geometricPrecision; image-rendering:optimizeQuality; fill-rule:evenodd; clip-rule:evenodd"
viewBox="0 0 325.67 127.12"
 xmlns:xlink="http://www.w3.org/1999/xlink"
 xmlns:xodm="http://www.corel.com/coreldraw/odm/2003">
 <defs>
  <style type="text/css">
   <![CDATA[
    .str0 {stroke:#373435;stroke-width:0.51;stroke-miterlimit:22.9256}
    .fil2 {fill:none}
    .fil1 {fill:#FEFEFE}
    .fil0 {fill:#263868}
    .fil3 {fill:#FEFEFE;fill-rule:nonzero}
    .fil5 {fill:#727376;fill-rule:nonzero}
    .fil4 {fill:#263868;fill-rule:nonzero}
   ]]>
  </style>
   <clipPath id="id0">
    <path d="M-0 0l325.67 0 0 127.12 -325.67 0 0 -127.12z"/>
   </clipPath>
     <clipPath id="id1">
      <path d="M194.35 86.74l8.59 -46.44 -183.24 6.29 286.27 -1.24 -23.48 31.77c0,0 4.17,-0.84 7.1,-1.04 1.67,-0.11 3,-0.31 3.95,-0.92 0.97,-0.62 1.68,-1.6 2.16,-2.95l1.79 0 -1.61 8.89c-0.41,2.28 -1.14,3.79 -2.1,4.57 -0.96,0.78 -2.79,1.16 -5.47,1.16l-20.32 0c-0.44,0 -0.84,-0.03 -1.2,-0.08l-72.43 0z"/>
     </clipPath>
       <mask id="id2">
  <linearGradient id="id3" gradientUnits="userSpaceOnUse" x1="51.15" y1="41.58" x2="206.59" y2="41.58">
   <stop offset="0" style="stop-opacity:1; stop-color:white"/>
   <stop offset="1" style="stop-opacity:0; stop-color:white"/>
  </linearGradient>
        <rect style="fill:url(#id3)" x="-18.98" y="16.51" width="228.86" height="43.04"/>
       </mask>
     <clipPath id="id4">
      <path d="M-0 0l325.67 0 0 127.12 -325.67 0 0 -127.12z"/>
     </clipPath>
 </defs>
 <g id="Camada_x0020_1">
  <metadata id="CorelCorpID_0Corel-Layer"/>
  <polygon class="fil0" points="-0,0 325.67,0 325.67,127.12 -0,127.12 "/>
  <g style="clip-path:url(#id0)">
   <g id="_2319532308160">
    <g>
     <path id="_1" class="fil1" d="M194.35 86.74l8.59 -46.44 -183.24 6.29 286.27 -1.24 -23.48 31.77c0,0 4.17,-0.84 7.1,-1.04 1.67,-0.11 3,-0.31 3.95,-0.92 0.97,-0.62 1.68,-1.6 2.16,-2.95l1.79 0 -1.61 8.89c-0.41,2.28 -1.14,3.79 -2.1,4.57 -0.96,0.78 -2.79,1.16 -5.47,1.16l-20.32 0c-0.44,0 -0.84,-0.03 -1.2,-0.08l-72.43 0z"/>
    </g>
    <g style="clip-path:url(#id1)">
     <g>
      <polygon id="_2" class="fil1 str0" style="mask:url(#id2)" points="-18.72,16.77 209.63,16.77 209.63,59.3 -18.72,59.3 "/>
     </g>
    </g>
    <g style="clip-path:url(#id4)">
     <path class="fil2" d="M194.35 86.74l8.59 -46.44 -183.24 6.29 286.27 -1.24 -23.48 31.77c0,0 4.17,-0.84 7.1,-1.04 1.67,-0.11 3,-0.31 3.95,-0.92 0.97,-0.62 1.68,-1.6 2.16,-2.95l1.79 0 -1.61 8.89c-0.41,2.28 -1.14,3.79 -2.1,4.57 -0.96,0.78 -2.79,1.16 -5.47,1.16l-20.32 0c-0.44,0 -0.84,-0.03 -1.2,-0.08l-72.43 0z"/>
     <g>
      <path class="fil3" d="M49.51 55.97l-2.64 10.64 2.36 0c1.66,0 2.89,-0.11 3.7,-0.33 0.8,-0.22 1.44,-0.59 1.9,-1.12 0.6,-0.72 1.1,-1.63 1.48,-2.76 0.38,-1.11 0.57,-2.22 0.57,-3.3 0,-1.13 -0.24,-1.93 -0.7,-2.41 -0.47,-0.48 -1.24,-0.71 -2.33,-0.71l-4.34 0zm-8.29 -4.88l15.96 0c2.3,0 4.01,0.56 5.11,1.68 1.11,1.11 1.66,2.85 1.66,5.2 0,2.02 -0.32,3.99 -0.94,5.93 -0.63,1.94 -1.43,3.46 -2.42,4.55 -1,1.11 -2.22,1.9 -3.67,2.37 -1.45,0.46 -3.73,0.7 -6.86,0.7l-4.41 0 -2.43 10.29c0,0.02 -0.01,0.06 -0.02,0.12 -0.05,0.22 -0.07,0.4 -0.07,0.52 0,0.48 0.16,0.85 0.48,1.11 0.32,0.26 0.77,0.39 1.38,0.39l-0.22 0.93 -7.4 0c-0.54,0 -0.97,-0.15 -1.28,-0.43 -0.32,-0.28 -0.48,-0.68 -0.48,-1.19 0,-0.05 0.01,-0.12 0.03,-0.23 0.02,-0.11 0.04,-0.25 0.07,-0.44l6.93 -28.59c0.01,-0.06 0.03,-0.13 0.03,-0.21 0.01,-0.08 0.01,-0.19 0.01,-0.33 0,-0.41 -0.14,-0.74 -0.42,-0.99 -0.29,-0.25 -0.69,-0.41 -1.22,-0.47l0.2 -0.93zm34.05 34.4c-3.72,0 -6.47,-0.68 -8.23,-2.06 -1.77,-1.37 -2.66,-3.5 -2.66,-6.4 0,-0.93 0.12,-2.15 0.36,-3.64 0.24,-1.49 0.59,-3.27 1.07,-5.33 0.46,-2.09 0.93,-3.93 1.39,-5.54 0.47,-1.59 0.91,-2.84 1.32,-3.72 1.4,-2.95 3.15,-5.07 5.25,-6.36 2.1,-1.28 4.87,-1.93 8.32,-1.93 3.83,0 6.69,0.68 8.6,2.06 1.9,1.37 2.85,3.43 2.85,6.18 0,0.83 -0.08,1.83 -0.24,3.02 -0.16,1.18 -0.41,2.57 -0.74,4.16 -0.57,2.72 -1.16,5.09 -1.76,7.14 -0.6,2.05 -1.16,3.59 -1.69,4.62 -1.47,2.91 -3.24,4.94 -5.28,6.09 -2.03,1.15 -4.9,1.72 -8.58,1.72zm-3.28 -9.81c0,1.38 0.4,2.46 1.2,3.21 0.79,0.76 1.92,1.13 3.38,1.13 1.59,0 2.89,-0.51 3.9,-1.53 1.01,-1.02 1.91,-2.76 2.71,-5.25 0.81,-2.54 1.46,-5 1.94,-7.38 0.48,-2.39 0.72,-4.15 0.72,-5.32 0,-1.58 -0.35,-2.73 -1.05,-3.47 -0.7,-0.74 -1.8,-1.11 -3.29,-1.11 -1.52,0 -2.8,0.49 -3.84,1.46 -1.03,0.97 -1.92,2.54 -2.65,4.69 -0.92,2.71 -1.65,5.35 -2.2,7.93 -0.54,2.59 -0.82,4.46 -0.82,5.63zm23.83 -24.59l6.38 0c0.85,0 1.47,0.24 1.89,0.7 0.42,0.46 0.63,1.15 0.63,2.08l-0.29 21.57 10.43 -24.35 6.64 0 0.48 23.81 8.55 -20.09c0.13,-0.37 0.22,-0.65 0.27,-0.85 0.05,-0.2 0.07,-0.39 0.07,-0.56 0,-0.38 -0.11,-0.69 -0.35,-0.93 -0.24,-0.24 -0.58,-0.39 -1.01,-0.46l0.2 -0.93 5.81 0c0.74,0 1.29,0.09 1.65,0.28 0.36,0.19 0.54,0.46 0.54,0.85 0,0.17 -0.04,0.39 -0.12,0.64 -0.07,0.26 -0.22,0.62 -0.42,1.08l-14.2 30.96 -4.85 0c-0.78,0 -1.32,-0.18 -1.61,-0.54 -0.29,-0.36 -0.44,-1.11 -0.44,-2.25l-0.17 -20.95 -10.05 23.74 -5.16 0c-0.64,0 -1.12,-0.15 -1.46,-0.44 -0.33,-0.29 -0.51,-0.73 -0.54,-1.32l-1.12 -27.91c-0.05,-1.14 -0.21,-1.93 -0.5,-2.36 -0.29,-0.42 -0.79,-0.7 -1.5,-0.83l0.26 -0.95zm43.94 0l21.17 0c-0.43,2.45 -0.85,3.93 -1.24,4.45 -0.4,0.51 -1.07,0.77 -2.02,0.77l-9.9 0 -1.72 7.51 10.78 0c-0.33,2.12 -0.72,3.47 -1.16,4.03 -0.45,0.56 -1.31,0.85 -2.59,0.85l-8.29 0 -2.65 10.88 10.8 0c0.65,0 1.16,-0.14 1.54,-0.41 0.38,-0.28 0.69,-0.72 0.93,-1.34l0.88 0c-0.57,3.24 -1.11,5.23 -1.61,5.97 -0.5,0.74 -1.27,1.11 -2.3,1.11l-16.09 0c-0.7,0 -1.21,-0.12 -1.54,-0.36 -0.33,-0.24 -0.5,-0.6 -0.5,-1.1 0,-0.15 0.02,-0.34 0.06,-0.56 0.04,-0.21 0.11,-0.55 0.2,-1.01l6.61 -27.79c0.03,-0.13 0.06,-0.24 0.07,-0.35 0.02,-0.1 0.02,-0.18 0.02,-0.24 0,-0.43 -0.14,-0.76 -0.41,-1.01 -0.28,-0.24 -0.69,-0.4 -1.23,-0.46l0.19 -0.93zm33.77 4.83l-2.24 9.42 4.24 0c1.8,0 3.16,-0.59 4.1,-1.77 0.93,-1.18 1.41,-2.9 1.41,-5.15 0,-0.85 -0.26,-1.49 -0.79,-1.89 -0.52,-0.41 -1.35,-0.61 -2.48,-0.61l-4.24 0zm-8.25 -4.83l15.96 0c2.29,0 4.03,0.58 5.24,1.72 1.21,1.15 1.81,2.82 1.81,4.99 0,3.38 -0.88,6.18 -2.63,8.4 -1.75,2.21 -3.98,3.32 -6.69,3.32l-0.1 0 2.98 8.59c0.21,0.54 0.48,0.94 0.81,1.19 0.33,0.26 0.76,0.38 1.28,0.38 0.18,0 0.36,-0.01 0.55,-0.03 0.19,-0.02 0.39,-0.07 0.62,-0.11 -0.33,1.97 -0.59,3.25 -0.76,3.82 -0.18,0.58 -0.37,0.97 -0.59,1.15 -0.16,0.13 -0.51,0.22 -1.06,0.28 -0.55,0.07 -1.35,0.1 -2.39,0.1 -1.53,0 -2.53,-0.15 -3,-0.43 -0.48,-0.28 -0.83,-0.8 -1.05,-1.57l-3.77 -12.64 -2.48 0 -2.79 11.61c-0.02,0.06 -0.02,0.14 -0.03,0.21 -0.01,0.08 -0.02,0.21 -0.02,0.38 0,0.46 0.15,0.82 0.46,1.07 0.3,0.25 0.75,0.4 1.33,0.43l-0.24 0.93 -7.36 0c-0.54,0 -0.96,-0.13 -1.26,-0.38 -0.3,-0.25 -0.46,-0.61 -0.46,-1.07 0,-0.14 0.03,-0.34 0.1,-0.59 0,-0.05 0,-0.08 0,-0.1l6.88 -28.71c0.05,-0.18 0.07,-0.29 0.08,-0.36 0.01,-0.07 0.01,-0.13 0.01,-0.2 0,-0.41 -0.14,-0.74 -0.42,-0.99 -0.29,-0.26 -0.69,-0.41 -1.22,-0.48l0.2 -0.93z"/>
      <path class="fil4" d="M208.95 51.09l21.22 0 -0.54 2.85c-0.16,0.87 -0.45,1.49 -0.85,1.84 -0.41,0.36 -1.03,0.54 -1.87,0.54l-9.77 0 -1.81 7.51 10.74 0 -0.59 2.69c-0.18,0.82 -0.46,1.41 -0.86,1.74 -0.39,0.33 -1.01,0.5 -1.83,0.5l-8.67 0 -3.17 13.03c-0.02,0.05 -0.02,0.1 -0.02,0.15 -0.04,0.27 -0.07,0.47 -0.07,0.59 0,0.45 0.15,0.79 0.44,1.03 0.29,0.24 0.76,0.38 1.39,0.43l-0.14 0.93 -7.21 0c-0.62,0 -1.09,-0.13 -1.42,-0.39 -0.33,-0.26 -0.49,-0.66 -0.49,-1.18 0,-0.18 0,-0.31 0.01,-0.39 0.01,-0.09 0.03,-0.19 0.07,-0.3l6.85 -28.61c0.02,-0.05 0.02,-0.11 0.03,-0.16 0.01,-0.07 0.02,-0.16 0.02,-0.29 0,-0.41 -0.15,-0.76 -0.44,-1.03 -0.29,-0.28 -0.7,-0.46 -1.2,-0.54l0.19 -0.93zm23.9 0l7.5 0c0.5,0 0.89,0.1 1.16,0.29 0.27,0.19 0.41,0.47 0.41,0.84 0,0.07 -0.01,0.15 -0.02,0.24 -0.02,0.08 -0.04,0.2 -0.07,0.35l-7.12 29c-0.01,0.08 -0.03,0.16 -0.03,0.24 -0.01,0.08 -0.01,0.2 -0.01,0.38 0,0.47 0.15,0.85 0.46,1.11 0.31,0.26 0.76,0.41 1.37,0.44l-0.19 0.93 -7.4 0c-0.54,0 -0.96,-0.13 -1.26,-0.38 -0.3,-0.25 -0.46,-0.61 -0.46,-1.07 0,-0.14 0.03,-0.33 0.1,-0.59 0,-0.05 0,-0.07 0,-0.09l6.92 -28.72c0.05,-0.18 0.07,-0.29 0.08,-0.36 0.01,-0.07 0.02,-0.13 0.02,-0.19 0,-0.38 -0.15,-0.71 -0.46,-0.97 -0.3,-0.26 -0.72,-0.43 -1.24,-0.51l0.24 -0.93zm14.2 0l19.85 0c-0.1,1.25 -0.31,2.41 -0.64,3.46 -0.33,1.05 -0.77,1.94 -1.31,2.65l-17.08 22.29 10.22 0c0.85,0 1.51,-0.15 1.99,-0.46 0.49,-0.31 0.85,-0.8 1.09,-1.49l0.9 0 -0.81 4.48c-0.22,1.15 -0.58,1.91 -1.06,2.3 -0.49,0.39 -1.41,0.59 -2.76,0.59l-16.71 0c-0.72,0 -1.23,-0.15 -1.53,-0.44 -0.3,-0.29 -0.46,-0.79 -0.46,-1.47 0,-0.55 0.14,-1.24 0.42,-2.03 0.28,-0.81 0.59,-1.43 0.94,-1.88l18.02 -22.72 -9.39 0c-0.85,0 -1.46,-0.13 -1.85,-0.38 -0.39,-0.25 -0.58,-0.67 -0.58,-1.24 0,-0.37 0.06,-0.85 0.18,-1.47 0.12,-0.61 0.31,-1.33 0.56,-2.18zm24.49 0l19.85 0c-0.1,1.25 -0.31,2.41 -0.64,3.46 -0.33,1.05 -0.77,1.94 -1.31,2.65l-17.08 22.29 10.22 0c0.85,0 1.51,-0.15 1.99,-0.46 0.49,-0.31 0.85,-0.8 1.09,-1.49l0.9 0 -0.81 4.48c-0.22,1.15 -0.58,1.91 -1.06,2.3 -0.49,0.39 -1.41,0.59 -2.76,0.59l-16.71 0c-0.72,0 -1.23,-0.15 -1.53,-0.44 -0.3,-0.29 -0.46,-0.79 -0.46,-1.47 0,-0.55 0.14,-1.24 0.42,-2.03 0.28,-0.81 0.59,-1.43 0.94,-1.88l18.02 -22.72 -9.39 0c-0.85,0 -1.46,-0.13 -1.85,-0.38 -0.39,-0.25 -0.58,-0.67 -0.58,-1.24 0,-0.37 0.06,-0.85 0.18,-1.47 0.12,-0.61 0.31,-1.33 0.56,-2.18z"/>
     </g>
    </g>
    <path class="fil5" d="M413.33 32.05l-369.91 14.1 359.88 -2.03 0 0.9 -387.61 2.18 -20.82 0.79c-23.28,1.19 -49.59,3.7 -72.54,3.7l-0.05 -0.9c32.28,-2.14 61.33,-4.31 93.38,-4.49l397.65 -15.16 0.03 0.9zm-431.61 15.72l8.15 -0.42 -2.05 0.01 -6.1 0.4z"/>
    <polygon class="fil5" points="213.08,-14.12 179.84,172.15 178.95,172 212.19,-14.27 "/>
    <polygon class="fil5" points="223.42,143.76 339.94,-10.44 340.66,-9.89 224.14,144.31 "/>
    <polygon class="fil5" points="228.45,147.3 344.97,-6.89 345.69,-6.35 229.17,147.85 "/>
   </g>
  </g>
  <polygon class="fil2" points="-0,0 325.67,0 325.67,127.12 -0,127.12 "/>
 </g>
</svg>
