<?xml version="1.0" encoding="UTF-8"?>
<!DOCTYPE svg PUBLIC "-//W3C//DTD SVG 1.1//EN" "http://www.w3.org/Graphics/SVG/1.1/DTD/svg11.dtd">
<!-- Creator: CorelDRAW 2021 (64 Bit) -->
<svg xmlns="http://www.w3.org/2000/svg" xml:space="preserve" width="127mm" height="49.5739mm" version="1.1" style="shape-rendering:geometricPrecision; text-rendering:geometricPrecision; image-rendering:optimizeQuality; fill-rule:evenodd; clip-rule:evenodd"
viewBox="0 0 345.26 134.77"
 xmlns:xlink="http://www.w3.org/1999/xlink"
 xmlns:xodm="http://www.corel.com/coreldraw/odm/2003">
 <defs>
  <style type="text/css">
   <![CDATA[
    .str0 {stroke:#373435;stroke-width:0.54;stroke-miterlimit:22.9256}
    .fil2 {fill:none}
    .fil1 {fill:#FEFEFE}
    .fil0 {fill:black}
    .fil3 {fill:#FEFEFE;fill-rule:nonzero}
    .fil4 {fill:black;fill-rule:nonzero}
   ]]>
  </style>
    <clipPath id="id0">
     <path d="M146.9 115.93l19.22 -97.28 -116.06 6.12 245.14 -1.4 -34.77 71.03c0,0 9.34,-1.89 15.89,-2.34 3.75,-0.25 6.71,-0.69 8.85,-2.06 2.16,-1.38 3.76,-3.57 4.84,-6.61l4.01 0 -3.61 19.9c-0.93,5.1 -2.56,8.5 -4.69,10.22 -2.16,1.74 -6.25,2.6 -12.24,2.6l-45.48 0c-0.98,0 -1.88,-0.06 -2.69,-0.19l-78.39 0z"/>
    </clipPath>
      <mask id="id1">
  <linearGradient id="id2" gradientUnits="userSpaceOnUse" x1="-173.7" y1="14.83" x2="174.28" y2="14.83">
   <stop offset="0" style="stop-opacity:1; stop-color:white"/>
   <stop offset="1" style="stop-opacity:0; stop-color:white"/>
  </linearGradient>
       <rect style="fill:url(#id2)" x="-330.4" y="-40.98" width="511.76" height="95.76"/>
      </mask>
 </defs>
 <g id="Camada_x0020_1">
  <metadata id="CorelCorpID_0Corel-Layer"/>
  <rect class="fil0" x="-0" y="-0" width="345.26" height="134.77"/>
  <g id="_2356002692448">
   <path class="fil1" d="M146.9 115.93l19.22 -97.28 -116.06 6.12 245.14 -1.4 -34.77 71.03c0,0 9.34,-1.89 15.89,-2.34 3.75,-0.25 6.71,-0.69 8.85,-2.06 2.16,-1.38 3.76,-3.57 4.84,-6.61l4.01 0 -3.61 19.9c-0.93,5.1 -2.56,8.5 -4.69,10.22 -2.16,1.74 -6.25,2.6 -12.24,2.6l-45.48 0c-0.98,0 -1.88,-0.06 -2.69,-0.19l-78.39 0z"/>
   <g style="clip-path:url(#id0)">
    <g>
     <polygon id="_1" class="fil1 str0" style="mask:url(#id1)" points="-330.13,-40.71 181.09,-40.71 181.09,54.5 -330.13,54.5 "/>
    </g>
   </g>
   <path class="fil2" d="M146.9 115.93l19.22 -97.28 -116.06 6.12 245.14 -1.4 -34.77 71.03c0,0 9.34,-1.89 15.89,-2.34 3.75,-0.25 6.71,-0.69 8.85,-2.06 2.16,-1.38 3.76,-3.57 4.84,-6.61l4.01 0 -3.61 19.9c-0.93,5.1 -2.56,8.5 -4.69,10.22 -2.16,1.74 -6.25,2.6 -12.24,2.6l-45.48 0c-0.98,0 -1.88,-0.06 -2.69,-0.19l-78.39 0z"/>
   <path class="fil3" d="M93.21 36.12l35.73 0c5.15,0 8.97,1.26 11.43,3.77 2.48,2.49 3.71,6.39 3.71,11.65 0,4.51 -0.71,8.94 -2.11,13.27 -1.4,4.35 -3.2,7.74 -5.41,10.19 -2.24,2.49 -4.97,4.26 -8.21,5.32 -3.24,1.04 -8.36,1.57 -15.36,1.57l-9.87 0 -5.44 23.05c0,0.04 -0.02,0.13 -0.05,0.27 -0.11,0.49 -0.16,0.89 -0.16,1.17 0,1.07 0.36,1.89 1.07,2.49 0.71,0.58 1.73,0.87 3.09,0.87l-0.49 2.08 -16.57 0c-1.22,0 -2.17,-0.33 -2.88,-0.96 -0.71,-0.64 -1.07,-1.53 -1.07,-2.66 0,-0.11 0.02,-0.27 0.05,-0.51 0.04,-0.24 0.09,-0.56 0.16,-0.98l15.51 -64c0.02,-0.13 0.05,-0.29 0.07,-0.47 0.02,-0.18 0.02,-0.42 0.02,-0.75 0,-0.91 -0.31,-1.66 -0.95,-2.22 -0.66,-0.56 -1.55,-0.91 -2.73,-1.06l0.44 -2.07zm18.55 10.92l-5.92 23.81 5.28 0c3.71,0 6.46,-0.25 8.28,-0.75 1.8,-0.49 3.22,-1.33 4.26,-2.51 1.35,-1.6 2.46,-3.66 3.31,-6.17 0.86,-2.49 1.27,-4.97 1.27,-7.39 0,-2.53 -0.53,-4.31 -1.57,-5.39 -1.06,-1.07 -2.78,-1.6 -5.21,-1.6l-9.72 0z"/>
   <path class="fil4" d="M222.71 36.12l44.44 0c-0.22,2.8 -0.69,5.39 -1.44,7.74 -0.75,2.35 -1.73,4.33 -2.93,5.93l-38.25 49.9 22.88 0c1.89,0 3.39,-0.35 4.46,-1.04 1.09,-0.69 1.89,-1.8 2.44,-3.33l2.02 0 -1.82 10.03c-0.49,2.57 -1.29,4.28 -2.37,5.15 -1.09,0.87 -3.15,1.31 -6.17,1.31l-37.41 0c-1.6,0 -2.75,-0.33 -3.42,-0.98 -0.67,-0.66 -1.02,-1.77 -1.02,-3.29 0,-1.24 0.31,-2.77 0.95,-4.55 0.62,-1.8 1.33,-3.2 2.11,-4.21l40.34 -50.86 -21.03 0c-1.89,0 -3.26,-0.29 -4.13,-0.86 -0.87,-0.56 -1.31,-1.49 -1.31,-2.77 0,-0.82 0.13,-1.91 0.4,-3.29 0.27,-1.37 0.69,-2.99 1.26,-4.88z"/>
   <path class="fil4" d="M169.37 36.12l44.44 0c-0.22,2.8 -0.69,5.39 -1.44,7.74 -0.75,2.35 -1.73,4.33 -2.93,5.93l-38.25 49.9 22.88 0c1.89,0 3.39,-0.35 4.46,-1.04 1.09,-0.69 1.89,-1.8 2.44,-3.33l2.02 0 -1.82 10.03c-0.49,2.57 -1.29,4.28 -2.37,5.15 -1.09,0.87 -3.15,1.31 -6.17,1.31l-37.41 0c-1.6,0 -2.75,-0.33 -3.42,-0.98 -0.67,-0.66 -1.02,-1.77 -1.02,-3.29 0,-1.24 0.31,-2.77 0.95,-4.55 0.62,-1.8 1.33,-3.2 2.11,-4.21l40.34 -50.86 -21.03 0c-1.89,0 -3.26,-0.29 -4.13,-0.86 -0.87,-0.56 -1.31,-1.49 -1.31,-2.77 0,-0.82 0.13,-1.91 0.4,-3.29 0.27,-1.37 0.69,-2.99 1.26,-4.88z"/>
  </g>
 </g>
</svg>
