<?xml version="1.0" encoding="UTF-8"?>
<!DOCTYPE svg PUBLIC "-//W3C//DTD SVG 1.1//EN" "http://www.w3.org/Graphics/SVG/1.1/DTD/svg11.dtd">
<!-- Creator: CorelDRAW 2021 (64 Bit) -->
<svg xmlns="http://www.w3.org/2000/svg" xml:space="preserve" width="127mm" height="48.214mm" version="1.1" style="shape-rendering:geometricPrecision; text-rendering:geometricPrecision; image-rendering:optimizeQuality; fill-rule:evenodd; clip-rule:evenodd"
viewBox="0 0 1493.9 567.14"
 xmlns:xlink="http://www.w3.org/1999/xlink"
 xmlns:xodm="http://www.corel.com/coreldraw/odm/2003">
 <defs>
  <style type="text/css">
   <![CDATA[
    .fil1 {fill:#FEFEFE}
    .fil0 {fill:#4F573B}
    .fil4 {fill:darkolivegreen}
    .fil2 {fill:#ADD057}
    .fil3 {fill:#ADD057;fill-rule:nonzero}
   ]]>
  </style>
 </defs>
 <g id="Camada_x0020_1">
  <metadata id="CorelCorpID_0Corel-Layer"/>
  <g id="_2319452663312">
   <g>
    <rect class="fil0" x="-0" y="0" width="1197.94" height="567.14"/>
    <circle class="fil1" cx="1210.33" cy="283.57" r="283.57"/>
    <g>
     <path class="fil2" d="M97.49 436.73c-8.85,-11.4 -56.81,-79.87 -20.92,-183.77 39.4,-114.08 153.88,-142.41 174.55,-225.28 26.07,76.25 34.98,132.53 26.69,200.95 -8.29,68.42 -28.87,112.8 -51.51,136.35 9.1,-32.96 13.04,-64.8 -15.15,-69.11 -23.27,-3.56 -54.26,34.44 -72.02,72.55 14.8,-98.29 43.98,-145.63 90.07,-209.3 -84.04,76.44 -125.82,181.65 -131.72,277.6zm86.94 -39.19c-27.51,24.05 -38.86,39.22 -48.37,50.58 0,0 -0.17,-11.76 -0.31,-34.17 17.44,-45.07 46.71,-103.16 62.83,-99.94 14.99,2.95 -5.19,44.3 -14.15,83.53z"/>
     <path class="fil3" d="M913.77 315.49c2.59,-9.62 -0.72,-18.14 -11.14,-19.15 -7,-0.67 -10.58,4.68 -12.43,10.97 -8.38,38.11 -19.98,138.3 -64.48,140.64 -26.27,1.48 -1.85,-78.44 14.43,-132.82 2.22,-8.14 -2.59,-16.65 -10.73,-18.5l-0.37 0c-7.77,-1.85 -15.54,2.22 -18.13,9.62 -9.76,28.6 -18.91,62.19 -21.9,90.84 -8.82,26.08 -25.34,51.13 -38.04,49.75 -35.89,-4.07 55.5,-141.33 -5.92,-150.95 -23.31,-3.33 -46.25,33.3 -64.01,71.41l41.07 -152.43c2.22,-9.62 -4.81,-18.87 -14.43,-18.87 -7.03,0 -12.95,4.81 -14.43,11.1l-54.84 203.73c-7.41,18.63 -18.65,38.99 -29.52,37.13 -25.9,-4.44 7.03,-120.98 28.49,-193.13l24.05 0c3.7,0 6.29,-2.59 6.29,-6.29 0,-3.33 -2.59,-5.92 -6.29,-5.92l-20.35 0c3.33,-10.73 6.29,-20.35 8.14,-27.38 2.59,-8.14 -2.22,-16.65 -10.73,-18.5l-0.37 -0.37c-7.4,-1.85 -15.54,2.59 -17.76,9.99 -3.33,10.73 -7.4,22.94 -11.47,36.26l-27.75 0c-3.33,0 -5.92,2.59 -5.92,5.92 0,3.7 2.59,6.29 5.92,6.29l24.05 0c-14.13,46.02 -29.25,100.95 -31.96,142.76 -6.6,20.35 -21.03,52.69 -34.27,50.37 -31.45,-5.18 24.42,-178.33 40.33,-232.72 2.59,-8.14 -2.22,-16.65 -10.73,-18.5l-0.37 -0.37c-7.77,-1.85 -15.54,2.59 -17.76,9.99 -15.49,49.23 -43.1,132.7 -47.03,190.93 -6.5,20.1 -20.73,51.67 -34.36,50.67 -26.27,-2.22 -1.85,-78.44 14.06,-132.82 2.59,-8.14 -2.22,-16.65 -10.36,-18.5l-0.37 0c-7.77,-1.85 -15.54,2.22 -18.13,9.62 -2.59,7.4 -5.18,14.8 -7.4,22.57 -3.33,-29.6 -22.94,-37.37 -39.59,-29.97 -26.96,11.61 -48.8,57.28 -54.91,97.4 -12.45,32.51 -38.3,57.77 -57.2,47.27 -11.84,-6.66 -12.95,-28.12 -8.88,-51.8 29.23,-4.81 59.94,-36.26 61.05,-69.19 0.74,-25.53 -24.42,-31.08 -40.7,-23.68 -47.73,21.09 -78.44,143.56 -23.31,162.05 29.13,9.8 53.25,-14.86 67.36,-40.95 0.47,20.91 6.93,37.25 21.44,41.32 27.01,7.4 47.36,-28.12 59.57,-60.68 -2.59,32.93 4.07,58.09 28.49,61.42 20.15,2.88 34.39,-19.13 43.22,-40.11 1.84,22.05 9.54,37.21 26.34,40.11 20.4,3.6 34.73,-18.65 43.59,-39.87 1.95,21.93 9.77,36.99 26.71,39.87 11.69,2.09 21.38,-4.51 29.19,-14.56 0.18,8.06 6.54,14.93 14.84,14.93 7.03,0 12.95,-4.44 14.43,-11.1l1.48 -5.18c0,-0.37 0.37,-0.37 0.37,-0.74 13.69,-41.81 51.8,-135.41 72.15,-131.34 26.27,5.18 -56.98,134.67 5.18,147.99 22.09,4.77 39.58,-17.88 50.51,-40.22 1.23,22.99 9.28,39.07 28.67,40.22 15.76,0.93 34.52,-22.71 39.65,-33.68 -17.88,38.63 -48.12,86.72 -74.5,111.12 53.76,-42.03 105,-118.35 131.79,-223.96zm-583.84 -3.33c12.21,5.92 -7.03,59.57 -41.07,68.08 8.88,-36.63 28.49,-74 41.07,-68.08zm96.94 4.44c12.95,-2.59 15.91,21.83 12.95,37.74 -0.37,1.48 -0.74,2.96 -1.11,4.81 -9.25,29.97 -32.93,86.58 -49.58,84.73 -24.79,-2.59 8.14,-121.36 37.74,-127.28z"/>
    </g>
   </g>
   <g>
    <path class="fil4" d="M1097.37 536.96c-11.28,-14.52 -72.39,-101.78 -26.66,-234.19 50.21,-145.39 196.1,-181.49 222.45,-287.09 33.23,97.17 44.58,168.89 34.01,256.09 -10.56,87.2 -36.79,143.76 -65.64,173.76 11.59,-42.01 16.61,-82.58 -19.3,-88.07 -29.66,-4.53 -69.15,43.89 -91.78,92.46 18.87,-125.26 56.05,-185.59 114.78,-266.72 -107.1,97.41 -160.34,231.49 -167.86,353.77zm110.79 -49.95c-35.05,30.65 -49.52,49.99 -61.65,64.46 0,0 -0.22,-14.99 -0.39,-43.55 22.23,-57.43 59.52,-131.47 80.07,-127.36 19.1,3.77 -6.61,56.46 -18.04,106.45z"/>
   </g>
  </g>
 </g>
</svg>
