<?xml version="1.0" encoding="UTF-8"?>
<!DOCTYPE svg PUBLIC "-//W3C//DTD SVG 1.1//EN" "http://www.w3.org/Graphics/SVG/1.1/DTD/svg11.dtd">
<!-- Creator: CorelDRAW 2021 (64 Bit) -->
<svg xmlns="http://www.w3.org/2000/svg" xml:space="preserve" width="1241.82mm" height="496.728mm" version="1.1" style="shape-rendering:geometricPrecision; text-rendering:geometricPrecision; image-rendering:optimizeQuality; fill-rule:evenodd; clip-rule:evenodd"
viewBox="0 0 111895.26 44758.04"
 xmlns:xlink="http://www.w3.org/1999/xlink"
 xmlns:xodm="http://www.corel.com/coreldraw/odm/2003">
 <defs>
  <style type="text/css">
   <![CDATA[
    .fil4 {fill:none}
    .fil0 {fill:#4F573A}
    .fil1 {fill:#94B04F}
    .fil3 {fill:#FEFEFE;fill-rule:nonzero}
    .fil2 {fill:#94B04F;fill-rule:nonzero}
   ]]>
  </style>
   <clipPath id="id0">
    <path d="M-0 0l111895.26 0 0 44758.04 -111895.26 0 0 -44758.04z"/>
   </clipPath>
 </defs>
 <g id="Camada_x0020_1">
  <metadata id="CorelCorpID_0Corel-Layer"/>
  <polygon class="fil0" points="-0,0 111895.26,0 111895.26,44758.04 -0,44758.04 "/>
  <g style="clip-path:url(#id0)">
   <g id="_2319425548416">
    <g>
     <path id="_1" class="fil1" d="M27770.2 34768.57c-476.22,-1020.15 -3777.73,-7320.2 -1807.38,-13448.7 1970.35,-6128.5 11206.86,-10371.74 12712.55,-16406.77 1898.82,5553.09 2547.55,9651.9 1943.85,14635.1 -603.58,4983.21 -2102.28,8215.42 -3751.23,9930.18 662.4,-2400.8 949.35,-4719.46 -1103.12,-5033.01 -1694.84,-258.99 -3951.62,2508.55 -5245.05,5283.83 1078.21,-7158.61 3203.28,-10606.24 6559.67,-15242.93 -6120.87,5566.98 -8879.29,13294.52 -9309.3,20282.3zm6047.85 -2919.39c-2003.2,1751.63 -2830.28,2856.77 -3522.98,3683.51 0,0 -12.61,-856.42 -22.36,-2488.52 1270.23,-3282.01 3401.65,-7513.28 4575.98,-7278.46 1091.67,215.22 -377.78,3226.38 -1030.64,6083.46z"/>
     <path class="fil2" d="M86935.2 25873.48c188.62,-700.65 -52.67,-1321.41 -811.5,-1394.63 -509.81,-49.28 -728.31,340.37 -863.1,798.46 -437.97,2541.41 -1804.73,10161.92 -4738.54,10242.77 -1913.13,107.77 -134.68,-5712.58 1050.88,-9673.52 161.71,-592.89 -188.62,-1212.58 -781.4,-1347.37l-26.91 0c-565.86,-134.68 -1131.73,161.7 -1320.35,700.65 -710.4,2082.88 -1377.26,4528.92 -1595.12,6615.84 -642.48,1899.25 -1845.31,3723.48 -2770.19,3623.55 -2613.68,-296.39 4041.9,-10293.32 -431.07,-10993.87 -1697.59,-242.56 -3368.26,2425.05 -4661.7,5200.54l2991.02 -11101.74c161.71,-700.55 -350.32,-1374.18 -1050.87,-1374.18 -512.04,0 -943.11,350.33 -1050.88,808.32l-3993.79 14837.5c-539.69,1357.01 -1358.61,2839.39 -2149.97,2704.28 -1886.21,-323.42 512.04,-8811.26 2074.84,-14065.74l1751.53 0c269.47,0 458.1,-188.63 458.1,-458.1 0,-242.46 -188.63,-431.07 -458.1,-431.07l-1482.06 0c242.56,-781.51 458.1,-1482.06 592.78,-1993.99 188.63,-592.88 -161.6,-1212.58 -781.4,-1347.37l-26.91 -26.91c-538.95,-134.68 -1131.73,188.62 -1293.43,727.57 -242.46,781.41 -538.95,1670.57 -835.34,2640.7l-2020.89 0c-242.56,0 -431.18,188.62 -431.18,431.07 0,269.47 188.62,458.1 431.18,458.1l1751.53 0c-1028.94,3351.52 -2130.15,7352.41 -2327.78,10397.38 -480.77,1482.05 -1531.22,3837.17 -2495.62,3668.37 -2290.37,-377.25 1778.44,-12987.85 2937.09,-16948.9 188.62,-592.88 -161.71,-1212.58 -781.41,-1347.37l-26.91 -26.91c-565.86,-134.68 -1131.73,188.62 -1293.43,727.57 -1127.92,3585.71 -3139.28,9664.3 -3425.39,13905.1 -473.67,1464.15 -1510.03,3763.2 -2502.72,3690.52 -1913.13,-161.7 -134.79,-5712.58 1023.95,-9673.52 188.63,-592.89 -161.7,-1212.58 -754.48,-1347.37l-27.02 0c-565.86,-134.68 -1131.73,161.7 -1320.35,700.65 -188.62,538.84 -377.25,1077.79 -538.84,1643.66 -242.56,-2155.69 -1670.68,-2721.55 -2883.26,-2182.6 -1963.36,845.72 -3554.13,4171.71 -3999.09,7093.22 -906.55,2367.84 -2789.05,4207.32 -4165.45,3442.54 -862.26,-485 -943.11,-2047.81 -646.72,-3772.31 2128.67,-350.33 4365.2,-2640.7 4446.05,-5038.95 53.94,-1859.19 -1778.44,-2263.46 -2964,-1724.51 -3476.04,1535.89 -5712.58,10455.03 -1697.59,11802.3 2121.68,713.79 3878.5,-1082.24 4905.54,-2982.66 34.11,1522.96 504.4,2712.55 1561.42,3009.58 1967.06,538.94 3449.11,-2047.92 4338.29,-4419.15 -188.62,2398.25 296.39,4230.52 2074.84,4473.08 1467.64,209.6 2504.63,-1393.26 3147.96,-2921.09 134.26,1605.83 695.04,2709.69 1917.89,2921.09 1485.87,262.16 2529.22,-1358.07 3174.67,-2903.93 141.68,1596.82 711.67,2693.79 1945.13,2903.93 851.02,151.95 1557.29,-328.61 2126.02,-1060.42 13.03,586.85 476.64,1087.33 1080.55,1087.33 511.93,0 943.1,-323.31 1050.87,-808.43l107.78 -377.24c0,-26.91 26.91,-26.91 26.91,-53.83 997.04,-3044.86 3772.42,-9862.15 5254.48,-9565.75 1913.13,377.25 -4149.67,9808.2 377.24,10778.33 1608.69,347.25 2882.3,-1302.13 3678.33,-2928.93 89.54,1674.28 675.96,2845.42 2088.07,2928.93 1147.62,67.81 2513.97,-1654.04 2887.82,-2452.51 -1302.55,2813 -3504.65,6315.95 -5425.83,8092.7 3915.05,-3060.75 7646.79,-8619.15 9597.86,-16310.76zm-42520.66 -242.56c889.17,431.17 -512.04,4338.29 -2991.02,4958.09 646.72,-2667.61 2074.84,-5389.16 2991.02,-4958.09zm7059.74 323.41c943.1,-188.62 1158.74,1589.83 943.1,2748.47 -26.91,107.77 -53.83,215.53 -80.85,350.22 -673.63,2182.7 -2398.14,6305.36 -3610.72,6170.67 -1805.36,-188.62 592.78,-8838.29 2748.47,-9269.36z"/>
    </g>
    <path class="fil3" d="M50168.86 -10022.03l7.15 -1.71c8198.06,-1903.45 16391.63,-303.76 23011.53,3821.32 6618.03,4123.91 11663.31,10771.89 13568.1,18966.93l3.45 6.9 0 7.97c1900.67,8195.49 300.73,16385.99 -3823.05,23003.82 -4125.1,6619.96 -10775.74,11666.28 -18974.05,13569.81l-7.75 1.74c-8195.49,1900.67 -16385.99,300.73 -23003.83,-3823.05 -6618.05,-4123.93 -11663.32,-10771.91 -13568.12,-18966.97 -0.2,-0.4 -3.43,-14.48 -3.43,-14.8 -1900.67,-8195.5 -300.74,-16386.02 3823.05,-23003.87 4123.91,-6618.03 10771.9,-11663.32 18966.95,-13568.11zm22951.62 3927.39c-6592.04,-4107.71 -14751.06,-5700.8 -22914.72,-3805.75l-1.49 0.34c-8163.88,1895.53 -14786.65,6920.8 -18894.58,13513.18 -4106.82,6590.6 -5700.07,14747.51 -3806.96,22909.39l3.28 6.55 0 7.54c1896.83,8160.53 6921.02,14780.59 13511.45,18887.3 6592.43,4107.96 14752.04,5701 22916.18,3805.42l1.3 -0.31c8163.29,-1895.76 14785.6,-6920.83 18893.31,-13512.88 4107.95,-6592.41 5700.98,-14751.97 3805.45,-22916.07l-0.04 -0.14c-1895.53,-8163.88 -6920.8,-14786.65 -13513.18,-18894.58z"/>
    <path class="fil3" d="M3471.32 -13699.23l-0.32 0.07c-8163.74,1895.58 -14786.41,6920.82 -18894.29,13513.12 -4107.97,6592.43 -5701.01,14752.05 -3805.43,22916.19 1895.53,8163.88 6920.81,14786.66 13513.19,18894.59 6592.43,4107.97 14752.05,5701.01 22916.19,3805.43 8163.89,-1895.54 14786.67,-6920.81 18894.6,-13513.2 4107.97,-6592.43 5701,-14752.05 3805.42,-22916.18l-0.07 -0.32c-1895.6,-8163.74 -6920.81,-14786.39 -13513.12,-18894.28 -6592.43,-4107.97 -14752.05,-5701 -22916.18,-3805.42zm-20.6 -125.42c8195.5,-1900.67 16386,-300.73 23003.84,3823.05 6619.96,4125.12 11666.28,10775.74 13569.81,18974.07l1.74 7.72c1900.66,8195.48 300.74,16386 -3823.05,23003.84 -4125.11,6619.97 -10775.75,11666.29 -18974.08,13569.82 -8198.07,1903.47 -16391.64,303.77 -23011.56,-3821.32 -6619.95,-4125.1 -11666.29,-10775.75 -13569.81,-18974.07 -1903.47,-8198.07 -303.77,-16391.64 3821.32,-23011.56 4125.1,-6619.95 10775.75,-11666.29 18974.07,-13569.81l7.72 -1.74z"/>
    <path class="fil3" d="M52194.23 6406.13c8251.74,-1641.17 16388.15,216.85 22872.88,4548.05 6486.34,4332.26 11320,11138.99 12963.48,19393.27l1.24 6.48c1641.16,8251.73 -216.85,16388.13 -4548.04,22872.86 -4332.27,6486.33 -11138.99,11319.99 -19393.26,12963.48l-6.49 1.24c-8251.74,1641.17 -16388.14,-216.85 -22872.87,-4548.04 -6486.34,-4332.27 -11319.99,-11138.98 -12963.48,-19393.27l-1.24 -6.49c-1641.17,-8251.73 216.86,-16388.13 4548.04,-22872.85 4332.27,-6486.33 11138.99,-11320 19393.26,-12963.49l6.48 -1.24zm22802.34 4653.35c-6459.16,-4314.12 -14564.34,-6164.13 -22784.48,-4527.44l-0.54 0.11c-8219.57,1636.74 -14997.68,6450.14 -19311.76,12909.25 -4314.1,6459.15 -6164.12,14564.33 -4527.43,22784.45l0.17 0.85c1636.79,8219.45 6450.14,14997.45 12909.17,19311.48 6459.16,4314.1 14564.34,6164.12 22784.47,4527.43l0.85 -0.17c8219.44,-1636.79 14997.44,-6450.15 19311.47,-12909.17 4314.11,-6459.16 6164.11,-14564.34 4527.43,-22784.46l-0.11 -0.54c-1636.73,-8219.58 -6450.12,-14997.7 -12909.24,-19311.77z"/>
    <path class="fil3" d="M53782.56 3991.75c8198.07,-1903.47 16391.64,-303.77 23011.56,3821.32 6619.96,4125.1 11666.29,10775.75 13569.81,18974.07l1.74 7.73c1900.67,8195.49 300.74,16385.99 -3823.06,23003.83 -4125.1,6619.96 -10775.74,11666.28 -18974.05,13569.81l-7.73 1.74c-8195.49,1900.67 -16386,300.73 -23003.84,-3823.05 -6619.96,-4125.12 -11666.29,-10775.75 -13569.82,-18974.08 -1903.47,-8198.07 -303.77,-16391.64 3821.32,-23011.56 4125.1,-6619.95 10775.75,-11666.29 18974.07,-13569.81zm22944.5 3929.11c-6592.43,-4107.97 -14752.05,-5701.01 -22916.19,-3805.43 -8163.88,1895.53 -14786.66,6920.81 -18894.59,13513.19 -4107.97,6592.43 -5701.01,14752.05 -3805.43,22916.19 1895.54,8163.89 6920.81,14786.66 13513.2,18894.6 6592.43,4107.96 14752.05,5701 22916.18,3805.42l0.65 -0.15c8163.58,-1895.65 14786.12,-6920.82 18893.94,-13513.04 4107.97,-6592.43 5701.01,-14752.04 3805.43,-22916.18l-0.14 -0.62c-1895.64,-8163.6 -6920.83,-14786.17 -13513.04,-18893.99z"/>
    <circle class="fil4" transform="matrix(84.1431 -19.5367 19.5367 84.1431 54996.9 -69764.8)" r="352.1"/>
    <path class="fil3" d="M50785.71 -8792.37c8331.79,-1188.26 16356.63,1113.21 22595.61,5794.74 6239,4681.53 10692.07,11743.07 11880.33,20074.91 1188.26,8331.81 -1113.21,16356.65 -5794.74,22595.62 -4681.53,6239 -11743.07,10692.06 -20074.91,11880.32l-5.51 0.75c-8329.82,1186.46 -16352.49,-1115 -22590.11,-5795.49 -6238.07,-4680.84 -10690.71,-11740.97 -11879.77,-20071.18 -0.31,-1.28 -1.3,-8.29 -1.3,-9.18 -1186.48,-8329.85 1114.97,-16352.54 5795.48,-22590.16 4680.83,-6238.07 11740.98,-10690.72 20071.19,-11879.76l3.72 -0.56zm22519.62 5896.05c-6212.65,-4661.77 -14203.79,-6953.57 -22500.86,-5770.51l-0.92 0.13c-8297.36,1183.35 -15329.52,5617.79 -19991.44,11830.64 -4661.32,6212.04 -6953.11,14202.24 -5770.83,22498.45l1.2 4.8 0 3.53c1184.43,8295.17 5618.29,15325.45 11829.9,19986.43 6212.87,4661.93 14204.34,6953.73 22501.73,5770.39l0.43 -0.06c8297.19,-1183.44 15329.22,-5617.82 19991.05,-11830.59 4661.94,-6212.87 6953.74,-14204.35 5770.39,-22501.75 -1183.35,-8297.37 -5617.79,-15329.54 -11830.66,-19991.47z"/>
    <path class="fil3" d="M46689.72 25399.39l-0.32 0.07c-8163.74,1895.58 -14786.41,6920.82 -18894.29,13513.12 -4107.97,6592.43 -5701.01,14752.05 -3805.43,22916.19 1895.53,8163.88 6920.81,14786.66 13513.19,18894.59 6592.43,4107.97 14752.05,5701.01 22916.19,3805.43 8163.89,-1895.54 14786.67,-6920.81 18894.6,-13513.2 4107.97,-6592.43 5701,-14752.05 3805.42,-22916.18l-0.07 -0.32c-1895.59,-8163.74 -6920.81,-14786.4 -13513.12,-18894.29 -6592.43,-4107.97 -14752.05,-5701 -22916.18,-3805.42zm-20.6 -125.42c8195.5,-1900.67 16386,-300.73 23003.84,3823.05 6619.96,4125.12 11666.28,10775.74 13569.81,18974.07l1.74 7.72c1900.66,8195.48 300.74,16386 -3823.05,23003.84 -4125.11,6619.97 -10775.75,11666.29 -18974.08,13569.82 -8198.07,1903.47 -16391.64,303.77 -23011.56,-3821.32 -6619.95,-4125.1 -11666.29,-10775.75 -13569.81,-18974.07 -1903.47,-8198.07 -303.77,-16391.64 3821.32,-23011.56 4125.1,-6619.95 10775.75,-11666.29 18974.07,-13569.81l7.72 -1.74z"/>
   </g>
  </g>
  <polygon class="fil4" points="-0,0 111895.26,0 111895.26,44758.04 -0,44758.04 "/>
 </g>
</svg>
