<?xml version="1.0" encoding="UTF-8"?>
<!DOCTYPE svg PUBLIC "-//W3C//DTD SVG 1.1//EN" "http://www.w3.org/Graphics/SVG/1.1/DTD/svg11.dtd">
<!-- Creator: CorelDRAW 2021 (64 Bit) -->
<svg xmlns="http://www.w3.org/2000/svg" xml:space="preserve" width="7.995mm" height="10.6479mm" version="1.1" style="shape-rendering:geometricPrecision; text-rendering:geometricPrecision; image-rendering:optimizeQuality; fill-rule:evenodd; clip-rule:evenodd"
viewBox="0 0 6.43 8.56"
 xmlns:xlink="http://www.w3.org/1999/xlink"
 xmlns:xodm="http://www.corel.com/coreldraw/odm/2003">
 <defs>
  <style type="text/css">
   <![CDATA[
    .fil1 {fill:#FEFEFE}
    .fil0 {fill:goldenrod;fill-rule:nonzero}
   ]]>
  </style>
 </defs>
 <g id="Camada_x0020_1">
  <metadata id="CorelCorpID_0Corel-Layer"/>
  <path class="fil0" d="M6.04 8.22l-0.11 0 -0.16 -0.16c-0.26,0.17 -0.51,0.29 -0.77,0.38 -0.26,0.08 -0.52,0.12 -0.79,0.12 -0.67,0 -1.21,-0.22 -1.6,-0.65 -0.4,-0.44 -0.59,-1.03 -0.59,-1.77 0,-0.78 0.21,-1.4 0.63,-1.88 0.42,-0.47 0.97,-0.71 1.66,-0.71 0.26,0 0.5,0.04 0.73,0.11 0.23,0.07 0.46,0.18 0.69,0.33l0.08 -0.34 0.17 0c-0.01,0.18 -0.02,0.35 -0.02,0.5 -0.01,0.15 -0.01,0.3 -0.01,0.45 0,0.07 0,0.14 0,0.21 0,0.08 0,0.19 0.01,0.35l-0.17 0c-0.02,-0.43 -0.16,-0.77 -0.42,-1.02 -0.26,-0.25 -0.6,-0.37 -1.04,-0.37 -0.51,0 -0.91,0.2 -1.18,0.59 -0.27,0.39 -0.41,0.96 -0.41,1.7 0,0.74 0.14,1.31 0.43,1.7 0.29,0.39 0.7,0.58 1.25,0.58 0.36,0 0.61,-0.06 0.77,-0.19 0.16,-0.13 0.24,-0.33 0.24,-0.61 0,-0.24 -0.01,-0.4 -0.03,-0.47 -0.02,-0.07 -0.06,-0.12 -0.11,-0.15 -0.1,-0.06 -0.36,-0.1 -0.76,-0.11 -0.02,0 -0.04,0 -0.05,0l0 -0.22c0.15,0.01 0.3,0.02 0.46,0.02 0.16,0 0.33,0.01 0.51,0.01 0.19,0 0.36,-0 0.52,-0.01 0.16,-0 0.31,-0.01 0.46,-0.02l0 0.22c-0.15,0 -0.25,0.04 -0.31,0.11 -0.05,0.07 -0.08,0.22 -0.08,0.45l0 0.85z"/>
  <path class="fil1" d="M0.39 4.67l0.11 0 0.16 -0.16c0.26,0.17 0.51,0.29 0.77,0.38 0.22,0.07 0.46,0.11 0.7,0.12 0.03,-0.08 0.06,-0.16 0.1,-0.23 -0.06,0.01 -0.13,0.01 -0.2,0.01 -0.36,0 -0.61,-0.06 -0.77,-0.19 -0.16,-0.13 -0.24,-0.33 -0.24,-0.61 0,-0.24 0.01,-0.4 0.03,-0.47 0.02,-0.07 0.06,-0.12 0.11,-0.15 0.1,-0.06 0.36,-0.1 0.76,-0.11 0.02,0 0.04,0 0.05,0l0 -0.22c-0.15,0.01 -0.3,0.02 -0.46,0.02 -0.16,0 -0.33,0.01 -0.51,0.01 -0.19,0 -0.36,-0 -0.52,-0.01 -0.16,-0 -0.31,-0.01 -0.46,-0.02l0 0.22c0.15,0 0.25,0.04 0.31,0.11 0.05,0.07 0.08,0.22 0.08,0.45l0 0.85zm2.57 0.24c0.34,-0.1 0.62,-0.29 0.86,-0.55 0.44,-0.48 0.59,-1.13 0.59,-1.77 0,-0.78 -0.21,-1.4 -0.63,-1.88 -0.42,-0.47 -0.97,-0.71 -1.66,-0.71 -0.26,0 -0.5,0.04 -0.73,0.11 -0.23,0.07 -0.46,0.18 -0.69,0.33l-0.08 -0.34 -0.17 0c0.01,0.18 0.02,0.35 0.02,0.5 0.01,0.15 0.01,0.3 0.01,0.45 0,0.07 0,0.14 -0,0.21 -0,0.08 -0,0.19 -0.01,0.35l0.17 0c0.02,-0.43 0.16,-0.77 0.42,-1.02 0.26,-0.25 0.6,-0.37 1.04,-0.37 0.51,0 0.91,0.2 1.18,0.59 0.27,0.39 0.41,0.96 0.41,1.7 0,1.05 -0.08,1.92 -0.73,2.4z"/>
 </g>
</svg>
