<?xml version="1.0" encoding="UTF-8"?>
<!DOCTYPE svg PUBLIC "-//W3C//DTD SVG 1.1//EN" "http://www.w3.org/Graphics/SVG/1.1/DTD/svg11.dtd">
<!-- Creator: CorelDRAW 2021 (64 Bit) -->
<svg xmlns="http://www.w3.org/2000/svg" xml:space="preserve" width="127mm" height="25.8618mm" version="1.1" style="shape-rendering:geometricPrecision; text-rendering:geometricPrecision; image-rendering:optimizeQuality; fill-rule:evenodd; clip-rule:evenodd"
viewBox="0 0 4858.91 989.45"
 xmlns:xlink="http://www.w3.org/1999/xlink"
 xmlns:xodm="http://www.corel.com/coreldraw/odm/2003">
 <defs>
  <style type="text/css">
   <![CDATA[
    .fil0 {fill:#FEFEFE}
    .fil5 {fill:#F37435}
    .fil4 {fill:#3E4095}
    .fil3 {fill:#1C3477}
    .fil2 {fill:#1C3477;fill-rule:nonzero}
    .fil1 {fill:#E86329;fill-rule:nonzero}
   ]]>
  </style>
 </defs>
 <g id="Camada_x0020_1">
  <metadata id="CorelCorpID_0Corel-Layer"/>
  <g id="_2326567110080">
   <rect class="fil0" y="-0" width="4858.91" height="989.45"/>
   <g>
    <path class="fil1" d="M547.36 553.31l148.62 0 79.91 -224.37 0.96 0 -15.66 224.37 148.62 0 148.46 -346.15 -122.73 0 -75.59 217.66 -0.96 0 14.3 -217.66 -141.91 0 -78.47 217.66 -0.96 0 17.1 -217.66 -122.73 0 1.04 346.15zm603.44 -150.06l-13.9 0c-90.13,0 -143.27,24.45 -155.89,83.9 -7.7,36.03 7.16,59.62 36.15,68.9 41.78,-19.09 83.61,-38.09 125.4,-57.15l10.89 54.42 69.9 0 34.6 -162.53c11.91,-56.09 -11.58,-85.34 -104.04,-85.34 -60.89,0 -123.29,13.9 -140.87,78.63l95.8 0c5.75,-20.14 14.39,-24.93 28.85,-24.93 16.3,0 21.02,7.19 18.46,19.18l-5.36 24.93zm-126.91 154.64c7.53,1.73 15.86,2.61 24.87,2.61 9.68,0 19.45,-1.1 29.02,-3.58 3.78,-4.02 8.49,-6.95 13.59,-8.61 3.64,-1.18 7.48,-1.72 11.35,-1.56 7.43,-4.3 14.51,-9.73 21.07,-16.46l-2.08 23.02 27.18 0 -9.61 -48.04 -115.39 52.62zm113.08 -89.44c-4.24,19.66 -13.26,32.6 -33.4,32.6 -17.74,0 -24.85,-9.59 -21.57,-24.93 2.88,-13.42 12.71,-27.81 43.39,-27.81l15.82 0 -4.24 20.14zm123.29 84.86l116.02 0 26.85 -126.09c3.28,-15.34 14.06,-30.21 36.12,-30.21 20.61,0 34.28,3.36 46.98,6.71l18.62 -87.26c-9.83,-5.75 -19.66,-6.71 -29.25,-6.71 -14.86,0 -32.36,7.67 -53.7,29.25l2.72 -26.37 -113.06 0 -51.3 240.67zm215.26 0l116.02 0 31.96 -150.06c4.07,-19.18 15.74,-26.85 26.85,-26.85 11.03,0 18.22,9.11 14.63,25.89l-32.2 151.02 116.02 0 31.96 -150.06c4.07,-19.18 15.74,-26.85 26.85,-26.85 11.03,0 18.22,9.11 14.62,25.89l-32.2 151.02 116.02 0 34.12 -160.13c13.51,-63.76 -16.38,-87.74 -64.72,-87.74 -27.32,0 -58.09,9.11 -85.1,43.63 -8.55,-29.72 -32.36,-43.63 -69.28,-43.63 -27.33,0 -58.09,9.11 -85.1,43.63l-0.96 0 4.87 -36.43 -113.06 0 -51.3 240.67z"/>
    <path class="fil2" d="M1950.16 553.31l170.68 0c106.43,0 188.25,-64.72 210.55,-169.24 21.82,-102.6 -6.47,-176.91 -144.95,-176.91l-162.52 0 -73.75 346.15zm191.21 -267.52l13.43 0c22.05,0 33.32,8.15 38.99,22.06 5.99,14.38 3.67,38.83 -3.44,72.39 -7.19,33.56 -15.27,58.01 -27.41,72.39 -11.67,13.9 -26.29,22.05 -48.42,22.05l-13.43 0 40.27 -188.89zm367.48 190.33c-7.03,17.26 -21.17,24.93 -34.12,24.93 -23.02,0 -30.04,-11.98 -24.13,-39.79l1.52 -7.19 165.88 0 3.52 -16.3c18.22,-85.82 -15.42,-132.32 -106.51,-132.32 -86.3,0 -151.58,43.15 -169.24,126.09 -20.69,97.32 35.8,128.96 106.27,128.96 90.13,0 138.15,-29.72 158.37,-84.38l-101.56 0zm-45.87 -72.87l0.72 -3.36c4.87,-23.01 19.9,-35 38.6,-35 18.3,0 27.73,11.99 22.77,35l-0.72 3.36 -61.37 0zm445.95 -16.3c11.58,-63.28 -35.8,-81.5 -110.11,-81.5 -85.82,0 -128.57,36.43 -137.99,80.54 -9.35,44.11 10.07,60.89 66.56,72.39 33.56,6.71 42.27,8.63 49.14,10.07 14.31,2.88 15.5,10.55 13.98,17.74 -2.4,11.5 -9.67,20.61 -27.89,20.61 -8.15,0 -13.98,-1.92 -17.66,-7.19 -3.28,-4.79 -3.99,-12.94 -1.6,-26.36l-104.44 0c-12.7,64.24 30.29,87.25 108.43,87.25 95.89,0 138.88,-33.08 149.98,-85.34 9.99,-46.99 -11.03,-65.2 -101.72,-78.15 -29.8,-4.32 -33.48,-9.59 -31.24,-20.14 2.23,-10.55 9.51,-17.74 28.76,-17.74 7.67,0 13.11,1.44 16.14,5.27 3.04,3.84 3.52,10.55 0.96,22.53l98.68 0zm304.03 24.45c10.55,-65.21 -19.57,-105.95 -113.06,-105.95 -85.34,0 -150.62,43.15 -168.28,126.09 -20.69,97.32 35.8,128.96 111.07,128.96 95.4,0 145.03,-37.39 160.76,-104.52l-107.31 0c-9.03,31.16 -17.34,45.07 -36.04,45.07 -17.74,0 -25.49,-8.63 -13.58,-64.72 13.1,-61.37 24.85,-71.44 44.03,-71.44 20.21,0 20.53,16.3 15.1,46.51l107.31 0zm20.38 21.57c-16.22,76.23 22.21,127.53 120.02,127.53 97.81,0 158.05,-51.3 174.27,-127.53 16.3,-76.23 -22.13,-127.53 -119.94,-127.53 -97.8,0 -158.13,51.3 -174.35,127.53zm119.78 0c10.23,-47.94 21.97,-62.32 40.67,-62.32 18.7,0 24.29,14.38 14.06,62.32 -10.23,47.95 -21.89,62.33 -40.59,62.33 -18.78,0 -24.29,-14.38 -14.14,-62.33zm178.67 120.34l116.02 0 31.96 -150.06c4.07,-19.18 15.74,-26.85 28.77,-26.85 13.9,0 18.93,10.07 15.18,27.81l-31.8 149.1 116.02 0 34.12 -160.13c13.58,-63.77 -16.38,-87.74 -64.72,-87.74 -27.33,0 -58.09,9.11 -85.1,43.63l-0.96 0 4.87 -36.43 -113.06 0 -51.3 240.67zm339.83 -60.41c-11.43,53.7 27.33,67.6 72.39,67.6 23.01,0 51.78,-4.79 79.43,-10.55l15.1 -70.96c-11.19,2.88 -20.77,2.88 -28.92,2.88 -13.9,0 -18.3,-6.23 -14.47,-24.45l15.74 -73.83 52.25 0 15.1 -70.95 -52.26 0 16.86 -79.11 -124.57 40.28 -8.23 38.83 -31.16 0 -15.1 70.95 31.17 0 -23.33 109.31z"/>
    <path class="fil2" d="M4648.3 386.95c11.58,-63.28 -35.8,-81.5 -110.11,-81.5 -85.82,0 -128.57,36.43 -137.99,80.54 -9.35,44.11 10.07,60.89 66.56,72.39 33.56,6.71 42.27,8.63 49.14,10.07 14.31,2.88 15.5,10.55 13.98,17.74 -2.4,11.5 -9.67,20.61 -27.89,20.61 -8.15,0 -13.98,-1.92 -17.66,-7.19 -3.28,-4.79 -4,-12.94 -1.6,-26.36l-104.44 0c-12.71,64.24 30.29,87.25 108.43,87.25 95.89,0 138.87,-33.08 149.98,-85.34 9.99,-46.99 -11.03,-65.2 -101.72,-78.15 -29.81,-4.32 -33.48,-9.59 -31.24,-20.14 2.23,-10.55 9.51,-17.74 28.76,-17.74 7.67,0 13.1,1.44 16.14,5.27 3.04,3.84 3.52,10.55 0.96,22.53l98.68 0z"/>
    <path class="fil3" d="M1172.62 660.54l-110.85 217.35 -179 -91.29 110.85 -217.36 147.31 -67.17 31.69 158.46zm-57.55 -108.3c14.83,7.56 20.72,25.71 13.16,40.54 -7.56,14.83 -25.71,20.72 -40.54,13.16 -14.83,-7.56 -20.72,-25.71 -13.16,-40.54 7.56,-14.83 25.71,-20.72 40.54,-13.16z"/>
    <path class="fil4" d="M1089.02 523.29c1.07,-8.25 3.86,-15.95 8.01,-22.74 8.39,-13.72 22.3,-23.69 38.65,-26.82 0.48,-1.69 0.91,-3.45 1.3,-5.27l0.96 -4.53c-21.33,2.76 -39.53,15.47 -49.79,33.33 -5.2,9.05 -8.36,19.42 -8.86,30.48l9.74 -4.43zm-4.58 33.61c7.39,17.6 22.02,31.4 40.16,37.67 0.59,-0.89 1.14,-1.82 1.63,-2.79 0.96,-1.87 1.68,-3.81 2.18,-5.77 -16.24,-5.37 -29.31,-17.71 -35.68,-33.47 -2.97,0.97 -5.78,2.43 -8.3,4.35zm77.65 39.59c22.46,-5.25 40.6,-21.73 48.19,-43.18l-10 0c-7.09,16.87 -21.9,29.69 -40.02,34.03l1.83 9.16z"/>
    <path class="fil5" d="M4228.58 246.08c-20.43,5.84 -26.3,27.25 -27.39,37.37 -2.72,22.76 -0.1,41.65 12.94,57.87 11.94,14.87 5.92,27.47 -13.59,24.45 -19.51,-3.02 -19.86,-49.4 -88.15,-49.91 0,0 42.85,6.55 39.72,43.1 -3.14,36.55 -26.83,43.61 -46.34,81.41 -19.51,37.81 -10.1,105.86 98.25,112.92 0,0 -49.13,-11.85 -34.84,-52.43 14.29,-40.58 43.61,-48.37 51.83,-79.02 8.22,-30.65 -7.58,-40.45 -7.58,-40.45 0,0 36.58,15.88 41.46,46.13 4.88,30.24 -11.85,34.53 -18.81,56.21 -2.67,8.33 -5.03,17.3 -2.53,22.59 3.22,6.8 15.27,8.36 18.99,-2.11 5.58,-15.7 24.3,-23.51 31.62,-34.35 7.32,-10.83 8.36,-16.76 3.57,-24.89 0,0 22.03,20.23 17.68,50.85 -4.35,30.63 -25.43,51.61 -40.42,63.52 18.82,-11.15 81.88,-24.7 87.46,-86.45 5.57,-61.75 -32.84,-96.72 -79.53,-130.5 -27.88,-20.17 -44.79,-40.72 -50.04,-59.9 0,0 -8.07,-15.62 5.7,-36.42z"/>
   </g>
  </g>
 </g>
</svg>
