<?xml version="1.0" encoding="UTF-8"?>
<!DOCTYPE svg PUBLIC "-//W3C//DTD SVG 1.1//EN" "http://www.w3.org/Graphics/SVG/1.1/DTD/svg11.dtd">
<!-- Creator: CorelDRAW 2021 (64 Bit) -->
<svg xmlns="http://www.w3.org/2000/svg" xml:space="preserve" width="127mm" height="133.462mm" version="1.1" style="shape-rendering:geometricPrecision; text-rendering:geometricPrecision; image-rendering:optimizeQuality; fill-rule:evenodd; clip-rule:evenodd"
viewBox="0 0 1319.63 1386.78"
 xmlns:xlink="http://www.w3.org/1999/xlink"
 xmlns:xodm="http://www.corel.com/coreldraw/odm/2003">
 <defs>
  <style type="text/css">
   <![CDATA[
    .fil1 {fill:#1C3477}
    .fil0 {fill:#E86329}
    .fil2 {fill:#FEFEFE;fill-rule:nonzero}
   ]]>
  </style>
 </defs>
 <g id="Camada_x0020_1">
  <metadata id="CorelCorpID_0Corel-Layer"/>
  <polygon class="fil0" points="659.82,1386.78 659.82,0 1319.63,0 1319.63,1386.78 "/>
  <g id="_2326785812400">
   <polygon class="fil1" points="-0,0 659.82,0 659.82,1386.78 -0,1386.78 "/>
   <path class="fil2" d="M118.09 1283.9l6.64 0 -1.29 9.71 -6.64 0 1.29 -9.71zm-17.73 40.62l12.29 0 2.58 -19.22 6.64 0 -2.58 19.22 12.29 0 2.58 -19.22 8.72 0 0 -11.69 -7.13 0 1.29 -9.71 8.72 0 0 -11.69 -7.13 0 2.58 -19.22 -12.29 0 -2.48 19.22 -6.64 0 2.48 -19.22 -12.28 0 -2.48 19.22 -8.72 0 0 11.69 7.13 0 -1.39 9.71 -8.72 0 0 11.69 7.13 0 -2.58 19.22zm60.33 0l55.28 0 0 -18.63 -28.14 0 0 -8.02 25.16 0 0 -18.62 -25.16 0 0 -7.63 27.24 0 0 -18.62 -54.39 0 0 71.53zm60.14 -18.63c0,10.11 7.63,20.51 32,20.51 24.57,0 32.2,-10.4 32.2,-20.51 0,-8.82 -4.36,-15.65 -14.37,-17.63l0 -0.2c8.12,-1.58 12.88,-6.54 12.88,-15.45 0,-12.78 -10.11,-21.5 -30.71,-21.5 -20.21,0 -30.32,8.72 -30.32,21.5 0,8.92 4.76,13.87 12.48,15.45l0 0.2c-9.81,1.98 -14.17,8.82 -14.17,17.63zm25.96 -2.97c0,-5.45 2.77,-7.23 6.24,-7.23 3.27,0 6.04,1.78 6.04,7.23 0,5.45 -2.77,7.23 -6.04,7.23 -3.47,0 -6.24,-1.78 -6.24,-7.23zm1.09 -29.03c0,-4.75 1.78,-6.54 5.15,-6.54 3.37,0 5.15,1.78 5.15,6.54 0,4.85 -1.78,6.54 -5.15,6.54 -3.37,0 -5.15,-1.68 -5.15,-6.54zm76.18 36.26c-4.26,0 -6.74,-2.28 -6.74,-9.11 0,-6.54 2.48,-8.82 6.74,-8.82 4.26,0 6.74,2.28 6.74,8.82 0,6.84 -2.48,9.11 -6.74,9.11zm27.44 -37.45c0,-16.05 -11.39,-21.6 -26.75,-21.6 -22.29,0 -34.18,13.18 -34.18,39.73 0,22.19 10.8,35.57 32.69,35.57 19.22,0 31.5,-9.81 31.5,-25.86 0,-15.36 -11.49,-22.39 -23.78,-22.39 -5.45,0 -11.1,1.29 -15.06,5.45 0.49,-11.99 2.38,-16.25 7.63,-16.25 2.67,0 4.95,0.99 4.95,5.35l22.98 0zm31.21 23.08l4.16 0c7.23,0 10.4,2.58 10.4,7.43 0,4.06 -2.28,6.93 -6.74,6.93 -3.77,0 -6.84,-1.88 -7.13,-7.73l-23.97 0c0,16.45 10.4,23.98 33.19,23.98 18.43,0 31.21,-7.63 31.21,-22.79 0,-8.32 -4.06,-15.45 -17.14,-16.54l0 -0.2c11.59,-1.58 15.85,-8.12 15.85,-15.75 0,-11.29 -8.92,-20.01 -31.31,-20.01 -17.14,0 -30.71,6.24 -30.71,23.97l23.98 0c0,-5.75 2.08,-7.73 6.04,-7.73 4.66,0 6.04,2.87 6.04,6.34 0,4.36 -2.87,6.84 -8.62,6.84l-5.25 0 0 15.26zm48.35 28.73l62.81 0 0 -18.63 -27.84 0 0 -0.2c21,-12.19 27.84,-21.1 27.84,-32.4 0,-11.39 -8.12,-22.19 -32,-22.19 -19.62,0 -31.41,7.23 -31.41,24.77l24.77 0c0,-5.94 2.67,-7.93 6.04,-7.93 2.87,0 5.45,1.58 5.45,5.84 0,4.75 -4.85,11.99 -19.72,21.7l-15.95 10.4 0 18.63zm92.73 -48.05c0,-6.84 2.48,-9.11 6.74,-9.11 4.26,0 6.74,2.28 6.74,9.11 0,6.54 -2.48,8.82 -6.74,8.82 -4.26,0 -6.74,-2.28 -6.74,-8.82zm-20.71 28.33c0,16.05 11.39,21.6 26.75,21.6 22.29,0 34.18,-13.18 34.18,-39.73 0,-22.19 -10.8,-35.57 -32.69,-35.57 -19.22,0 -31.5,9.81 -31.5,25.86 0,15.36 11.49,22.39 23.78,22.39 5.45,0 11.1,-1.29 15.06,-5.45 -0.49,11.99 -2.38,16.25 -7.63,16.25 -2.67,0 -4.95,-0.99 -4.95,-5.35l-22.98 0z"/>
   <path class="fil2" d="M87.17 1035.55c-0.35,6.62 -2.53,8.54 -5.75,8.54 -6.28,0 -6.8,-7.15 -6.8,-16.73 0,-10.11 0.61,-16.73 7.06,-16.73 3.05,0 5.67,1.39 6.01,8.54l22.84 0c-0.09,-18.48 -13.51,-24.93 -29.37,-24.93 -21.27,0 -32.95,13.25 -32.34,32.86 0,19.96 10.2,33.38 32.25,33.38 15.6,0 29.46,-7.58 29.46,-24.93l-23.36 0zm27.8 1.39c0,13.86 8.98,23.18 26.76,23.18 17.78,0 26.76,-9.33 26.76,-23.18 0,-13.86 -8.98,-23.18 -26.76,-23.18 -17.78,0 -26.76,9.33 -26.76,23.18zm21.79 0c0,-8.72 1.57,-11.33 4.97,-11.33 3.4,0 4.97,2.62 4.97,11.33 0,8.72 -1.57,11.33 -4.97,11.33 -3.4,0 -4.97,-2.61 -4.97,-11.33zm37.13 21.88l21.09 0 0 -27.28c0,-3.49 1.83,-4.88 4.18,-4.88 2.53,0 3.84,1.83 3.84,5.06l0 27.11 21.09 0 0 -29.11c0,-11.59 -6.36,-15.95 -15.17,-15.95 -4.97,0 -10.2,1.66 -13.77,7.93l-0.17 0 -0.52 -6.62 -20.57 0 0 43.75zm58.05 0l21.09 0 0 -30.85 7.41 0 0 -12.9 -7.41 0 0 -2.53c0,-2.53 1.13,-3.75 3.84,-3.75 1.48,0 3.05,0.09 4.53,0.17l0 -12.38c-3.22,-0.78 -7.76,-1.22 -11.77,-1.22 -9.94,0 -17.69,5.32 -17.69,15.34l0 4.36 -4.71 0 0 12.9 4.71 0 0 30.85zm32.42 0l21.09 0 0 -43.75 -21.09 0 0 43.75zm0 -49.51l21.09 0 0 -13.42 -21.09 0 0 13.42zm53.25 22.22l-2.53 0c-16.39,0 -25.1,4.45 -25.1,15.25 0,8.63 6.28,13.34 15.17,13.34 4.79,0 9.41,-1.48 12.46,-5.49l0.52 4.18 18.48 0 0 -29.55c0,-10.2 -5.4,-15.51 -22.22,-15.51 -11.07,0 -21.88,2.53 -22.57,14.29l17.43 0c0.26,-3.66 1.66,-4.53 4.27,-4.53 2.96,0 4.1,1.31 4.1,3.49l0 4.53zm0 11.85c0,3.57 -1.13,5.93 -4.79,5.93 -3.23,0 -4.88,-1.74 -4.88,-4.53 0,-2.44 1.22,-5.06 6.8,-5.06l2.88 0 0 3.66zm25.71 15.43l21.09 0 0 -27.28c0,-3.49 1.83,-4.88 4.18,-4.88 2.53,0 3.84,1.83 3.84,5.06l0 27.11 21.09 0 0 -29.11c0,-11.59 -6.36,-15.95 -15.17,-15.95 -4.97,0 -10.2,1.66 -13.77,7.93l-0.17 0 -0.52 -6.62 -20.57 0 0 43.75zm73.48 8.02l3.31 2.61c0.96,-0.35 2.09,-0.61 2.7,-0.61 1.66,0 3.49,0.78 3.49,2.35 0,1.74 -2.27,2.96 -4.53,2.96 -2.27,0 -5.14,-0.87 -7.76,-2.09l-2.35 5.58c3.05,1.48 7.58,2.44 12.11,2.44 7.32,0 12.81,-3.4 12.81,-9.24 0,-4.71 -3.75,-7.41 -8.28,-7.41 -0.87,0 -1.92,0.09 -2.53,0.26l-0.17 0 2.18 -3.75c14.82,-0.87 21.27,-7.58 21.53,-18.83l-19.52 0c-0.44,5.67 -1.39,8.19 -4.79,8.19 -3.22,0 -4.97,-1.57 -4.97,-11.77 0,-11.16 1.74,-12.99 5.23,-12.99 3.66,0 4.36,2.96 4.53,8.45l19.52 0c-0.61,-11.85 -7.67,-19.26 -24.67,-19.26 -15.51,0 -25.71,7.84 -25.71,22.92 0,16.12 9.59,22.4 21.7,23.27l-3.83 6.89zm63.8 -35.3l-2.53 0c-16.39,0 -25.1,4.45 -25.1,15.25 0,8.63 6.28,13.34 15.17,13.34 4.79,0 9.41,-1.48 12.46,-5.49l0.52 4.18 18.48 0 0 -29.55c0,-10.2 -5.4,-15.51 -22.22,-15.51 -11.07,0 -21.88,2.53 -22.57,14.29l17.43 0c0.26,-3.66 1.66,-4.53 4.27,-4.53 2.96,0 4.1,1.31 4.1,3.49l0 4.53zm0 11.85c0,3.57 -1.13,5.93 -4.79,5.93 -3.23,0 -4.88,-1.74 -4.88,-4.53 0,-2.44 1.22,-5.06 6.8,-5.06l2.88 0 0 3.66zm107.12 15.43l23.88 0 -12.81 -13.42c5.49,-4.53 9.5,-14.21 9.5,-21.27l-17.95 0c-0.17,3.66 -1.48,6.97 -3.66,9.76l-7.76 -7.58c8.63,-5.4 12.46,-11.68 12.46,-17.26 0,-8.37 -8.1,-14.82 -24.58,-14.82 -16.04,0 -25.45,5.49 -25.45,15.69 0,5.4 4.01,10.72 10.2,14.9 -11.85,3.4 -16.12,10.11 -16.12,16.56 0,11.77 10.11,19.09 27.45,19.09 7.41,0 14.73,-1.57 21.01,-5.4l3.83 3.75zm-14.12 -13.42c-3.31,2.01 -6.54,3.23 -9.33,3.23 -4.01,0 -7.76,-2.79 -7.76,-6.8 0,-2.44 2.18,-5.58 6.62,-6.8l10.46 10.37zm-12.73 -35.65c0,-2 1.22,-4.18 5.75,-4.18 4.53,0 5.75,2.18 5.75,4.18 0,1.57 -1.92,4.36 -5.75,6.8 -3.84,-2.44 -5.75,-5.23 -5.75,-6.8zm-388.03 113.92c0,-14.64 -11.77,-19.52 -27.45,-19.52 -18.39,0 -28.94,7.41 -28.94,20.48 0,8.11 3.4,13.95 13.07,16.82l17.69 5.23c2.35,0.7 4.18,1.92 4.18,4.27 0,2.79 -2.35,5.14 -6.01,5.14 -2.35,0 -3.92,-0.78 -4.88,-2 -0.96,-1.31 -1.31,-3.05 -1.31,-4.79l-23.88 0c0,16.39 13.95,21.09 29.11,21.09 17.78,0 30.33,-6.45 30.33,-21.88 0,-7.58 -3.49,-13.25 -11.42,-16.56 -6.36,-2.7 -15.17,-4.45 -19.96,-5.84 -2.61,-0.78 -4.1,-1.74 -4.1,-4.01 0,-1.92 1.74,-3.66 5.75,-3.66 3.23,0 5.4,1.31 5.49,5.23l22.31 0zm37.3 31.03c-0.61,3.14 -2.88,4.53 -5.23,4.53 -4.18,0 -5.93,-2.18 -5.93,-7.23l0 -1.31 30.16 0 0 -2.96c0,-15.6 -7.93,-24.06 -24.49,-24.06 -15.69,0 -25.89,7.84 -25.89,22.92 0,17.69 11.5,23.45 24.32,23.45 16.39,0 23.97,-5.4 25.54,-15.34l-18.48 0zm-11.16 -13.25l0 -0.61c0,-4.18 2.27,-6.36 5.67,-6.36 3.31,0 5.49,2.18 5.49,6.36l0 0.61 -11.16 0zm35.56 27.28l21.09 0 0 -22.92c0,-2.79 1.39,-5.49 5.4,-5.49 3.75,0 6.36,0.61 8.8,1.22l0 -15.86c-2.01,-1.05 -3.84,-1.22 -5.58,-1.22 -2.7,0 -5.58,1.4 -8.63,5.32l-0.52 -4.79 -20.57 0 0 43.75zm38.7 0l21.09 0 0 -43.75 -21.09 0 0 43.75zm0 -49.51l21.09 0 0 -13.42 -21.09 0 0 13.42zm57.87 35.47c-0.61,3.14 -2.88,4.53 -5.23,4.53 -4.18,0 -5.93,-2.18 -5.93,-7.23l0 -1.31 30.16 0 0 -2.96c0,-15.6 -7.93,-24.06 -24.49,-24.06 -15.69,0 -25.89,7.84 -25.89,22.92 0,17.69 11.5,23.45 24.32,23.45 16.39,0 23.97,-5.4 25.54,-15.34l-18.48 0zm-11.16 -13.25l0 -0.61c0,-4.18 2.27,-6.36 5.67,-6.36 3.31,0 5.49,2.18 5.49,6.36l0 0.61 -11.16 0zm65.63 5.4c0,4.53 -0.26,7.15 -0.87,8.45 -0.61,1.31 -1.57,2.35 -3.92,2.35 -4.53,0 -5.06,-4.88 -5.06,-10.81 0,-6.97 0.61,-10.81 4.97,-10.81 2.35,0 4.01,1.48 4.53,4.01 0.35,1.83 0.35,2.96 0.35,6.8zm1.22 21.88l19.87 0 0 -62.93 -21.09 0 0 23.18c-3.49,-3.92 -8.11,-5.32 -12.99,-5.32 -9.5,0 -17.95,6.1 -17.95,22.66 0,15.51 7.58,23.71 18.22,23.71 4.79,0 9.94,-1.39 13.6,-6.36l0.35 5.06zm52.64 -27.28l-2.53 0c-16.39,0 -25.1,4.45 -25.1,15.25 0,8.63 6.28,13.34 15.17,13.34 4.79,0 9.41,-1.48 12.46,-5.49l0.52 4.18 18.48 0 0 -29.55c0,-10.2 -5.4,-15.51 -22.22,-15.51 -11.07,0 -21.88,2.53 -22.57,14.29l17.43 0c0.26,-3.66 1.66,-4.53 4.27,-4.53 2.96,0 4.1,1.31 4.1,3.49l0 4.53zm0 11.85c0,3.57 -1.13,5.93 -4.79,5.93 -3.23,0 -4.88,-1.74 -4.88,-4.53 0,-2.44 1.22,-5.06 6.8,-5.06l2.88 0 0 3.66zm55.78 -6.45c0,4.53 -0.26,7.15 -0.87,8.45 -0.61,1.31 -1.57,2.35 -3.92,2.35 -4.53,0 -5.06,-4.88 -5.06,-10.81 0,-6.97 0.61,-10.81 4.97,-10.81 2.35,0 4.01,1.48 4.53,4.01 0.35,1.83 0.35,2.96 0.35,6.8zm1.22 21.88l19.87 0 0 -62.93 -21.09 0 0 23.18c-3.49,-3.92 -8.11,-5.32 -12.99,-5.32 -9.5,0 -17.95,6.1 -17.95,22.66 0,15.51 7.58,23.71 18.22,23.71 4.79,0 9.94,-1.39 13.6,-6.36l0.35 5.06zm57.26 -14.03c-0.61,3.14 -2.88,4.53 -5.23,4.53 -4.18,0 -5.93,-2.18 -5.93,-7.23l0 -1.31 30.16 0 0 -2.96c0,-15.6 -7.93,-24.06 -24.49,-24.06 -15.69,0 -25.89,7.84 -25.89,22.92 0,17.69 11.5,23.45 24.32,23.45 16.39,0 23.97,-5.4 25.54,-15.34l-18.48 0zm-11.16 -13.25l0 -0.61c0,-4.18 2.27,-6.36 5.67,-6.36 3.31,0 5.49,2.18 5.49,6.36l0 0.61 -11.16 0z"/>
  </g>
  <path class="fil2" d="M772.71 1285.07l6.64 0 -1.29 9.71 -6.64 0 1.29 -9.71zm-17.73 40.62l12.29 0 2.58 -19.22 6.64 0 -2.58 19.22 12.29 0 2.58 -19.22 8.72 0 0 -11.69 -7.13 0 1.29 -9.71 8.72 0 0 -11.69 -7.13 0 2.58 -19.22 -12.29 0 -2.48 19.22 -6.64 0 2.48 -19.22 -12.28 0 -2.48 19.22 -8.72 0 0 11.69 7.13 0 -1.39 9.71 -8.72 0 0 11.69 7.13 0 -2.58 19.22zm79.26 0l27.15 0 0 -71.53 -21.6 0c-5.25,5.94 -13.08,9.81 -21,12.48l0 20.41c6.14,-1.88 10.5,-4.36 15.45,-7.93l0 46.56zm91.84 -26.45c-0.4,7.53 -2.87,9.71 -6.54,9.71 -7.13,0 -7.73,-8.12 -7.73,-19.02 0,-11.49 0.69,-19.02 8.02,-19.02 3.47,0 6.44,1.58 6.84,9.71l25.96 0c-0.1,-21 -15.36,-28.33 -33.39,-28.33 -24.17,0 -37.45,15.06 -36.75,37.35 0,22.69 11.59,37.94 36.66,37.94 17.73,0 33.49,-8.62 33.49,-28.33l-26.55 0zm54.19 -2.28l4.16 0c7.23,0 10.4,2.58 10.4,7.43 0,4.06 -2.28,6.93 -6.74,6.93 -3.77,0 -6.84,-1.88 -7.13,-7.73l-23.97 0c0,16.45 10.4,23.98 33.19,23.98 18.43,0 31.21,-7.63 31.21,-22.79 0,-8.32 -4.06,-15.45 -17.14,-16.54l0 -0.2c11.59,-1.58 15.85,-8.12 15.85,-15.75 0,-11.29 -8.92,-20.01 -31.31,-20.01 -17.14,0 -30.71,6.24 -30.71,23.97l23.98 0c0,-5.75 2.08,-7.73 6.04,-7.73 4.66,0 6.04,2.87 6.04,6.34 0,4.36 -2.87,6.84 -8.62,6.84l-5.25 0 0 15.26zm78.56 28.73l25.96 0 0 -11.49 8.52 0 0 -18.03 -8.52 0 0 -42 -34.48 0 -24.17 39.63 0 20.41 32.69 0 0 11.49zm-12.98 -29.52l13.37 -24.57 0.2 0 0 24.57 -13.57 0zm52.9 -23.38l31.9 0 -27.05 52.9 28.93 0 26.75 -56.27 0 -15.26 -60.53 0 0 18.62zm69.75 0l31.9 0 -27.05 52.9 28.93 0 26.75 -56.27 0 -15.26 -60.53 0 0 18.62z"/>
  <path class="fil2" d="M672.42 1058.82l48.64 0 0 -16.39 -24.75 0 0 -7.06 22.14 0 0 -16.39 -22.14 0 0 -6.71 23.97 0 0 -16.39 -47.85 0 0 62.93zm53.6 0l21.09 0 0 -27.28c0,-3.49 1.83,-4.88 4.18,-4.88 2.53,0 3.84,1.83 3.84,5.06l0 27.11 21.09 0 0 -29.11c0,-11.59 -6.36,-15.95 -15.17,-15.95 -4.97,0 -10.2,1.66 -13.77,7.93l-0.17 0 -0.52 -6.62 -20.57 0 0 43.75zm59.44 -10.98c0,9.76 7.58,12.29 15.78,12.29 4.18,0 9.24,-0.87 14.03,-1.92l0 -12.9c-1.92,0.52 -3.66,0.52 -5.14,0.52 -2.53,0 -3.57,-1.13 -3.57,-4.45l0 -13.42 9.5 0 0 -12.9 -9.5 0 0 -14.38 -21.09 7.32 0 7.06 -5.67 0 0 12.9 5.67 0 0 19.87zm84.37 -32.77l-21.09 0 0 27.28c0,3.49 -1.83,4.88 -4.18,4.88 -2.53,0 -3.84,-1.83 -3.84,-5.06l0 -27.11 -21.09 0 0 29.11c0,11.59 6.36,15.95 15.17,15.95 4.97,0 10.2,-1.66 13.77,-7.93l0.17 0 0.52 6.62 20.57 0 0 -43.75zm51.16 13.51c-0.35,-11.5 -9.67,-14.82 -23.18,-14.82 -15.6,0 -21.96,6.62 -21.96,14.64 0,8.02 4.18,11.07 14.9,13.16 6.36,1.22 8.02,1.57 9.33,1.83 2.7,0.52 3.23,1.92 3.23,3.23 0,2.09 -0.96,3.75 -4.27,3.75 -1.48,0 -2.61,-0.35 -3.49,-1.31 -0.78,-0.87 -1.22,-2.35 -1.31,-4.79l-19 0c0.17,11.68 8.89,15.86 23.1,15.86 17.43,0 23.97,-6.01 23.97,-15.51 0,-8.54 -4.53,-11.85 -21.53,-14.21 -5.58,-0.78 -6.45,-1.74 -6.45,-3.66 0,-1.92 1.05,-3.23 4.53,-3.23 1.39,0 2.44,0.26 3.14,0.96 0.7,0.7 1.05,1.92 1.05,4.1l17.95 0zm6.71 30.24l21.09 0 0 -43.75 -21.09 0 0 43.75zm0 -49.51l21.09 0 0 -13.42 -21.09 0 0 13.42zm53.25 22.22l-2.53 0c-16.39,0 -25.1,4.45 -25.1,15.25 0,8.63 6.28,13.34 15.17,13.34 4.79,0 9.41,-1.48 12.46,-5.49l0.52 4.18 18.48 0 0 -29.55c0,-10.2 -5.4,-15.51 -22.22,-15.51 -11.07,0 -21.88,2.53 -22.57,14.29l17.43 0c0.26,-3.66 1.66,-4.53 4.27,-4.53 2.96,0 4.1,1.31 4.1,3.49l0 4.53zm0 11.85c0,3.57 -1.13,5.93 -4.79,5.93 -3.23,0 -4.88,-1.74 -4.88,-4.53 0,-2.44 1.22,-5.06 6.8,-5.06l2.88 0 0 3.66zm70.6 -14.82c-0.35,-11.5 -9.67,-14.82 -23.18,-14.82 -15.6,0 -21.96,6.62 -21.96,14.64 0,8.02 4.18,11.07 14.9,13.16 6.36,1.22 8.02,1.57 9.33,1.83 2.7,0.52 3.23,1.92 3.23,3.23 0,2.09 -0.96,3.75 -4.27,3.75 -1.48,0 -2.61,-0.35 -3.49,-1.31 -0.78,-0.87 -1.22,-2.35 -1.31,-4.79l-19 0c0.17,11.68 8.89,15.86 23.1,15.86 17.43,0 23.97,-6.01 23.97,-15.51 0,-8.54 -4.53,-11.85 -21.53,-14.21 -5.58,-0.78 -6.45,-1.74 -6.45,-3.66 0,-1.92 1.05,-3.23 4.53,-3.23 1.39,0 2.44,0.26 3.14,0.96 0.7,0.7 1.05,1.92 1.05,4.1l17.95 0zm7.15 30.24l21.09 0 0 -27.28c0,-3.49 1.83,-4.88 3.84,-4.88 2,0 3.66,1.66 3.66,4.71l0 27.46 21.09 0 0 -27.28c0,-3.49 1.83,-4.88 3.84,-4.88 2,0 3.66,1.66 3.66,4.71l0 27.46 21.09 0 0 -29.11c0,-11.59 -6.36,-15.95 -15.17,-15.95 -4.97,0 -10.2,1.66 -13.77,7.93 -2.7,-5.4 -7.58,-7.93 -14.29,-7.93 -4.97,0 -10.2,1.66 -13.77,7.93l-0.17 0 -0.52 -6.62 -20.57 0 0 43.75zm84.11 -21.88c0,13.86 8.98,23.18 26.76,23.18 17.78,0 26.76,-9.33 26.76,-23.18 0,-13.86 -8.98,-23.18 -26.76,-23.18 -17.78,0 -26.76,9.33 -26.76,23.18zm21.79 0c0,-8.72 1.57,-11.33 4.97,-11.33 3.4,0 4.97,2.62 4.97,11.33 0,8.72 -1.57,11.33 -4.97,11.33 -3.4,0 -4.97,-2.61 -4.97,-11.33zm118.54 21.88l23.88 0 -12.81 -13.42c5.49,-4.53 9.5,-14.21 9.5,-21.27l-17.95 0c-0.17,3.66 -1.48,6.97 -3.66,9.76l-7.76 -7.58c8.63,-5.4 12.46,-11.68 12.46,-17.26 0,-8.37 -8.1,-14.82 -24.58,-14.82 -16.04,0 -25.45,5.49 -25.45,15.69 0,5.4 4.01,10.72 10.2,14.9 -11.85,3.4 -16.12,10.11 -16.12,16.56 0,11.77 10.11,19.09 27.45,19.09 7.41,0 14.73,-1.57 21.01,-5.4l3.83 3.75zm-14.12 -13.42c-3.31,2.01 -6.54,3.23 -9.33,3.23 -4.01,0 -7.76,-2.79 -7.76,-6.8 0,-2.44 2.18,-5.58 6.62,-6.8l10.46 10.37zm-12.73 -35.65c0,-2 1.22,-4.18 5.75,-4.18 4.53,0 5.75,2.18 5.75,4.18 0,1.57 -1.92,4.36 -5.75,6.8 -3.84,-2.44 -5.75,-5.23 -5.75,-6.8zm-420.2 158.98l48.64 0 0 -16.39 -24.75 0 0 -7.06 22.14 0 0 -16.39 -22.14 0 0 -6.71 23.97 0 0 -16.39 -47.85 0 0 62.93zm53.6 0l21.09 0 0 -27.28c0,-3.49 1.83,-4.88 4.18,-4.88 2.53,0 3.84,1.83 3.84,5.06l0 27.11 21.09 0 0 -29.11c0,-11.59 -6.36,-15.95 -15.17,-15.95 -4.97,0 -10.2,1.66 -13.77,7.93l-0.17 0 -0.52 -6.62 -20.57 0 0 43.75zm86.98 -14.03c-0.61,3.14 -2.88,4.53 -5.23,4.53 -4.18,0 -5.93,-2.18 -5.93,-7.23l0 -1.31 30.16 0 0 -2.96c0,-15.6 -7.93,-24.06 -24.49,-24.06 -15.69,0 -25.89,7.84 -25.89,22.92 0,17.69 11.5,23.45 24.32,23.45 16.39,0 23.97,-5.4 25.54,-15.34l-18.48 0zm-11.16 -13.25l0 -0.61c0,-4.18 2.27,-6.36 5.67,-6.36 3.31,0 5.49,2.18 5.49,6.36l0 0.61 -11.16 0zm35.56 27.28l21.09 0 0 -22.92c0,-2.79 1.39,-5.49 5.4,-5.49 3.75,0 6.36,0.61 8.8,1.22l0 -15.86c-2.01,-1.05 -3.84,-1.22 -5.58,-1.22 -2.7,0 -5.58,1.4 -8.63,5.32l-0.52 -4.79 -20.57 0 0 43.75zm64.41 -12.64c-4.62,0 -4.79,-3.49 -4.79,-8.8 0,-4.88 0,-11.24 5.14,-11.24 4.97,0 4.97,5.06 4.97,10.2 0,5.32 -0.09,9.85 -5.32,9.85zm6.01 11.68c0,5.49 -1.83,7.41 -5.49,7.41 -1.48,0 -2.62,-0.35 -3.4,-0.96 -0.78,-0.61 -1.13,-1.57 -1.13,-2.53l-20.74 0c0.96,8.89 6.8,14.82 23.88,14.82 15.6,0 26.41,-3.92 26.41,-21.7l0 -39.83 -19.87 0 -0.35 4.79 -0.17 0c-2.79,-4.53 -7.32,-6.1 -12.46,-6.1 -10.9,0 -19.26,6.97 -19.26,23.36 0,15.86 10.2,20.92 18.83,20.92 4.88,0 10.28,-1.05 13.6,-5.67l0.17 0 0 5.49zm26.32 0.96l21.09 0 0 -43.75 -21.09 0 0 43.75zm0 -49.51l21.09 0 0 -13.42 -21.09 0 0 13.42zm53.25 22.22l-2.53 0c-16.39,0 -25.1,4.45 -25.1,15.25 0,8.63 6.28,13.34 15.17,13.34 4.79,0 9.41,-1.48 12.46,-5.49l0.52 4.18 18.48 0 0 -29.55c0,-10.2 -5.4,-15.51 -22.22,-15.51 -11.07,0 -21.88,2.53 -22.57,14.29l17.43 0c0.26,-3.66 1.66,-4.53 4.27,-4.53 2.96,0 4.1,1.31 4.1,3.49l0 4.53zm0 11.85c0,3.57 -1.13,5.93 -4.79,5.93 -3.23,0 -4.88,-1.74 -4.88,-4.53 0,-2.44 1.22,-5.06 6.8,-5.06l2.88 0 0 3.66z"/>
  <path class="fil2" d="M107.92 156.18l5.54 -23.93 0.18 0 5.01 23.93 -10.73 0zm-30.44 25.69l24.11 0 2.55 -10.2 18.21 0 2.46 10.2 26.04 0 -20.41 -63.52 -32.64 0 -20.32 63.52zm73.9 0l42.76 0 0 -14.43 -15.4 0 13.99 -16.19 0 -13.55 -40.12 0 0 14.43 14.16 0 -15.4 17.24 0 12.49zm98.8 -44.16l-21.29 0 0 27.54c0,3.52 -1.85,4.93 -4.22,4.93 -2.55,0 -3.87,-1.85 -3.87,-5.1l0 -27.36 -21.29 0 0 29.38c0,11.7 6.42,16.1 15.31,16.1 5.01,0 10.29,-1.67 13.9,-8.01l0.18 0 0.53 6.69 20.76 0 0 -44.16zm6.33 44.16l21.29 0 0 -63.52 -21.29 0 0 63.52zm89.38 -14.16c-0.62,3.17 -2.9,4.57 -5.28,4.57 -4.22,0 -5.98,-2.2 -5.98,-7.3l0 -1.32 30.44 0 0 -2.99c0,-15.75 -8.01,-24.28 -24.72,-24.28 -15.84,0 -26.13,7.92 -26.13,23.14 0,17.86 11.61,23.67 24.55,23.67 16.54,0 24.19,-5.45 25.78,-15.48l-18.65 0zm-11.26 -13.37l0 -0.62c0,-4.22 2.29,-6.42 5.72,-6.42 3.34,0 5.54,2.2 5.54,6.42l0 0.62 -11.26 0zm81.2 -2.99c-0.35,-11.61 -9.77,-14.96 -23.4,-14.96 -15.75,0 -22.17,6.69 -22.17,14.78 0,8.09 4.22,11.17 15.04,13.28 6.42,1.23 8.09,1.58 9.41,1.85 2.73,0.53 3.26,1.94 3.26,3.26 0,2.11 -0.97,3.78 -4.31,3.78 -1.5,0 -2.64,-0.35 -3.52,-1.32 -0.79,-0.88 -1.23,-2.38 -1.32,-4.84l-19.18 0c0.18,11.79 8.97,16.01 23.31,16.01 17.59,0 24.19,-6.07 24.19,-15.66 0,-8.62 -4.58,-11.96 -21.73,-14.34 -5.63,-0.79 -6.51,-1.76 -6.51,-3.69 0,-1.94 1.06,-3.26 4.58,-3.26 1.41,0 2.46,0.26 3.17,0.97 0.7,0.7 1.06,1.94 1.06,4.14l18.12 0zm56.74 4.49c-0.62,-11.97 -7.74,-19.44 -24.9,-19.44 -15.66,0 -25.95,7.92 -25.95,23.14 0,17.86 11.61,23.67 25.43,23.67 17.51,0 25.16,-6.86 25.43,-19.18l-19.71 0c-0.44,5.72 -1.41,8.27 -4.84,8.27 -3.26,0 -5.01,-1.58 -5.01,-11.88 0,-11.26 1.76,-13.11 5.28,-13.11 3.69,0 4.4,2.99 4.57,8.53l19.71 0zm56.13 -18.12l-21.29 0 0 27.54c0,3.52 -1.85,4.93 -4.22,4.93 -2.55,0 -3.87,-1.85 -3.87,-5.1l0 -27.36 -21.29 0 0 29.38c0,11.7 6.42,16.1 15.31,16.1 5.01,0 10.29,-1.67 13.9,-8.01l0.18 0 0.53 6.69 20.76 0 0 -44.16zm6.33 44.16l21.29 0 0 -23.14c0,-2.82 1.41,-5.54 5.46,-5.54 3.78,0 6.42,0.62 8.89,1.23l0 -16.01c-2.02,-1.06 -3.87,-1.23 -5.63,-1.23 -2.73,0 -5.63,1.41 -8.71,5.37l-0.53 -4.84 -20.76 0 0 44.16zm36.6 -22.08c0,13.99 9.06,23.4 27.01,23.4 17.95,0 27.01,-9.41 27.01,-23.4 0,-13.99 -9.06,-23.4 -27.01,-23.4 -17.95,0 -27.01,9.41 -27.01,23.4zm21.99 0c0,-8.8 1.58,-11.44 5.01,-11.44 3.43,0 5.01,2.64 5.01,11.44 0,8.8 -1.58,11.44 -5.01,11.44 -3.43,0 -5.01,-2.64 -5.01,-11.44zm-425.01 110.94c0,-4.58 0.26,-7.21 0.88,-8.53 0.62,-1.32 1.58,-2.38 3.96,-2.38 4.57,0 5.1,4.93 5.1,10.91 0,7.04 -0.62,10.91 -5.01,10.91 -2.38,0 -4.05,-1.5 -4.57,-4.05 -0.35,-1.85 -0.35,-2.99 -0.35,-6.86zm-21.29 38.97l21.29 0 0 -20.94c3.52,3.96 8.18,5.37 13.11,5.37 9.59,0 18.12,-6.16 18.12,-22.87 0,-15.66 -7.65,-23.93 -18.39,-23.93 -4.84,0 -10.03,1.41 -13.72,6.42l-0.35 -5.1 -20.06 0 0 61.06zm57.98 -16.89l21.29 0 0 -23.14c0,-2.82 1.41,-5.54 5.46,-5.54 3.78,0 6.42,0.62 8.89,1.23l0 -16.01c-2.02,-1.06 -3.87,-1.23 -5.63,-1.23 -2.73,0 -5.63,1.41 -8.71,5.37l-0.53 -4.84 -20.76 0 0 44.16zm36.6 -22.08c0,13.99 9.06,23.4 27.01,23.4 17.95,0 27.01,-9.41 27.01,-23.4 0,-13.99 -9.06,-23.4 -27.01,-23.4 -17.95,0 -27.01,9.41 -27.01,23.4zm21.99 0c0,-8.8 1.58,-11.44 5.01,-11.44 3.43,0 5.01,2.64 5.01,11.44 0,8.8 -1.58,11.44 -5.01,11.44 -3.43,0 -5.01,-2.64 -5.01,-11.44zm39.06 22.08l21.29 0 0 -31.14 7.48 0 0 -13.02 -7.48 0 0 -2.55c0,-2.55 1.14,-3.78 3.87,-3.78 1.5,0 3.08,0.09 4.57,0.18l0 -12.49c-3.25,-0.79 -7.83,-1.23 -11.88,-1.23 -10.03,0 -17.86,5.37 -17.86,15.48l0 4.4 -4.75 0 0 13.02 4.75 0 0 31.14zm83.23 -44.16l-21.29 0 0 27.54c0,3.52 -1.85,4.93 -4.22,4.93 -2.55,0 -3.87,-1.85 -3.87,-5.1l0 -27.36 -21.29 0 0 29.38c0,11.7 6.42,16.1 15.31,16.1 5.01,0 10.29,-1.67 13.9,-8.01l0.18 0 0.53 6.69 20.76 0 0 -44.16zm6.33 44.16l21.29 0 0 -27.54c0,-3.52 1.85,-4.93 4.22,-4.93 2.55,0 3.87,1.85 3.87,5.1l0 27.36 21.29 0 0 -29.38c0,-11.7 -6.42,-16.1 -15.31,-16.1 -5.01,0 -10.29,1.67 -13.9,8.01l-0.18 0 -0.53 -6.69 -20.76 0 0 44.16zm87.36 -22.08c0,4.57 -0.26,7.21 -0.88,8.53 -0.62,1.32 -1.58,2.38 -3.96,2.38 -4.57,0 -5.1,-4.93 -5.1,-10.91 0,-7.04 0.62,-10.91 5.01,-10.91 2.38,0 4.05,1.5 4.57,4.05 0.35,1.85 0.35,2.99 0.35,6.86zm1.23 22.08l20.06 0 0 -63.52 -21.29 0 0 23.4c-3.52,-3.96 -8.18,-5.37 -13.11,-5.37 -9.59,0 -18.12,6.16 -18.12,22.87 0,15.66 7.65,23.93 18.39,23.93 4.84,0 10.03,-1.41 13.72,-6.42l0.35 5.1zm26.13 -22.08c0,13.99 9.06,23.4 27.01,23.4 17.95,0 27.01,-9.41 27.01,-23.4 0,-13.99 -9.06,-23.4 -27.01,-23.4 -17.95,0 -27.01,9.41 -27.01,23.4zm21.99 0c0,-8.8 1.58,-11.44 5.01,-11.44 3.43,0 5.01,2.64 5.01,11.44 0,8.8 -1.58,11.44 -5.01,11.44 -3.43,0 -5.01,-2.64 -5.01,-11.44z"/>
  <path class="fil2" d="M830.14 181.87l48.3 0 0 -17.07 -23.14 0 0 -46.45 -25.16 0 0 63.52zm78.47 -27.54l-2.55 0c-16.54,0 -25.34,4.49 -25.34,15.4 0,8.71 6.33,13.46 15.31,13.46 4.84,0 9.5,-1.5 12.58,-5.54l0.53 4.22 18.65 0 0 -29.82c0,-10.29 -5.46,-15.66 -22.43,-15.66 -11.17,0 -22.08,2.55 -22.78,14.43l17.59 0c0.26,-3.69 1.67,-4.58 4.31,-4.58 2.99,0 4.13,1.32 4.13,3.52l0 4.57zm0 11.97c0,3.61 -1.14,5.98 -4.84,5.98 -3.25,0 -4.93,-1.76 -4.93,-4.57 0,-2.46 1.23,-5.1 6.86,-5.1l2.9 0 0 3.69zm25.95 15.57l21.29 0 0 -23.14c0,-2.82 1.41,-5.54 5.46,-5.54 3.78,0 6.42,0.62 8.89,1.23l0 -16.01c-2.02,-1.06 -3.87,-1.23 -5.63,-1.23 -2.73,0 -5.63,1.41 -8.71,5.37l-0.53 -4.84 -20.76 0 0 44.16zm65.19 -27.54l-2.55 0c-16.54,0 -25.34,4.49 -25.34,15.4 0,8.71 6.33,13.46 15.31,13.46 4.84,0 9.5,-1.5 12.58,-5.54l0.53 4.22 18.65 0 0 -29.82c0,-10.29 -5.46,-15.66 -22.43,-15.66 -11.17,0 -22.08,2.55 -22.78,14.43l17.59 0c0.26,-3.69 1.67,-4.58 4.31,-4.58 2.99,0 4.13,1.32 4.13,3.52l0 4.57zm0 11.97c0,3.61 -1.14,5.98 -4.84,5.98 -3.25,0 -4.93,-1.76 -4.93,-4.57 0,-2.46 1.23,-5.1 6.86,-5.1l2.9 0 0 3.69zm25.95 15.57l21.29 0 0 -27.54c0,-3.52 1.85,-4.93 4.22,-4.93 2.55,0 3.87,1.85 3.87,5.1l0 27.36 21.29 0 0 -29.38c0,-11.7 -6.42,-16.1 -15.31,-16.1 -5.01,0 -10.29,1.67 -13.9,8.01l-0.18 0 -0.53 -6.69 -20.76 0 0 44.16zm57.01 -0.88c0,4.93 -1.5,6.33 -5.01,6.33 -0.79,0 -1.58,-0.09 -2.38,-0.18l0 10.91c1.94,0.62 4.49,0.7 6.95,0.7 12.4,0 21.73,-0.97 21.73,-15.48l0 -45.57 -21.29 0 0 43.28zm0 -49.09l21.29 0 0 -13.55 -21.29 0 0 13.55zm53.75 22.43l-2.55 0c-16.54,0 -25.34,4.49 -25.34,15.4 0,8.71 6.33,13.46 15.31,13.46 4.84,0 9.5,-1.5 12.58,-5.54l0.53 4.22 18.65 0 0 -29.82c0,-10.29 -5.46,-15.66 -22.43,-15.66 -11.17,0 -22.08,2.55 -22.78,14.43l17.59 0c0.26,-3.69 1.67,-4.58 4.31,-4.58 2.99,0 4.13,1.32 4.13,3.52l0 4.57zm0 11.97c0,3.61 -1.14,5.98 -4.84,5.98 -3.25,0 -4.93,-1.76 -4.93,-4.57 0,-2.46 1.23,-5.1 6.86,-5.1l2.9 0 0 3.69zm-306.68 126.51l29.03 0 13.2 -44.16 -21.99 0 -5.63 27.63 -0.18 0 -5.63 -27.63 -21.99 0 13.2 44.16zm45.4 0l21.29 0 0 -44.16 -21.29 0 0 44.16zm0 -49.97l21.29 0 0 -13.55 -21.29 0 0 13.55zm49.53 27.89c0,-3.87 0,-5.01 0.35,-6.86 0.53,-2.55 2.2,-4.05 4.57,-4.05 4.4,0 5.01,3.87 5.01,10.91 0,5.98 -0.53,10.91 -5.1,10.91 -2.38,0 -3.34,-1.06 -3.96,-2.38 -0.62,-1.32 -0.88,-3.96 -0.88,-8.53zm-21.29 22.08l20.06 0 0.35 -5.1c3.69,5.01 8.89,6.42 13.72,6.42 10.73,0 18.39,-8.27 18.39,-23.93 0,-16.72 -8.53,-22.87 -18.12,-22.87 -4.93,0 -9.59,1.41 -13.11,5.37l0 -23.4 -21.29 0 0 63.52zm57.98 0l21.29 0 0 -23.14c0,-2.82 1.41,-5.54 5.46,-5.54 3.78,0 6.42,0.62 8.89,1.23l0 -16.01c-2.02,-1.06 -3.87,-1.23 -5.63,-1.23 -2.73,0 -5.63,1.41 -8.71,5.37l-0.53 -4.84 -20.76 0 0 44.16zm65.19 -27.54l-2.55 0c-16.54,0 -25.34,4.49 -25.34,15.4 0,8.71 6.33,13.46 15.31,13.46 4.84,0 9.5,-1.5 12.58,-5.54l0.53 4.22 18.65 0 0 -29.82c0,-10.29 -5.46,-15.66 -22.43,-15.66 -11.17,0 -22.08,2.55 -22.78,14.43l17.59 0c0.26,-3.69 1.67,-4.58 4.31,-4.58 2.99,0 4.13,1.32 4.13,3.52l0 4.57zm0 11.97c0,3.61 -1.14,5.98 -4.84,5.98 -3.25,0 -4.93,-1.76 -4.93,-4.57 0,-2.46 1.23,-5.1 6.86,-5.1l2.9 0 0 3.69zm25.95 15.57l21.29 0 0 -27.54c0,-3.52 1.85,-4.93 4.22,-4.93 2.55,0 3.87,1.85 3.87,5.1l0 27.36 21.29 0 0 -29.38c0,-11.7 -6.42,-16.1 -15.31,-16.1 -5.01,0 -10.29,1.67 -13.9,8.01l-0.18 0 -0.53 -6.69 -20.76 0 0 44.16zm60 -11.08c0,9.85 7.65,12.4 15.92,12.4 4.22,0 9.33,-0.88 14.16,-1.94l0 -13.02c-1.94,0.53 -3.69,0.53 -5.19,0.53 -2.55,0 -3.61,-1.14 -3.61,-4.49l0 -13.55 9.59 0 0 -13.02 -9.59 0 0 -14.52 -21.29 7.39 0 7.13 -5.72 0 0 13.02 5.72 0 0 20.06zm65.28 -3.08c-0.62,3.17 -2.9,4.57 -5.28,4.57 -4.22,0 -5.98,-2.2 -5.98,-7.3l0 -1.32 30.44 0 0 -2.99c0,-15.75 -8.01,-24.28 -24.72,-24.28 -15.84,0 -26.13,7.92 -26.13,23.14 0,17.86 11.61,23.67 24.55,23.67 16.54,0 24.19,-5.45 25.78,-15.48l-18.65 0zm-11.26 -13.37l0 -0.62c0,-4.22 2.29,-6.42 5.72,-6.42 3.34,0 5.54,2.2 5.54,6.42l0 0.62 -11.26 0z"/>
 </g>
</svg>
